<svg xmlns="http://www.w3.org/2000/svg" width="440" height="322" shape-rendering="geometricPrecision" version="1.0"><defs><filter id="a" width="200%" height="200%" x="0" y="0"><feOffset dx="3" dy="3" in="SourceGraphic" result="offOut"/><feGaussianBlur in="offOut" stdDeviation="3"/></filter></defs><g stroke-linecap="square" stroke-linejoin="round"><path d="M0 0h440v322H0z" style="fill:#fff"/><path fill="#969696" stroke="#969696" d="M25 42q0-7 5-7h380q5 0 5 7v112h0q0 7-5 7H30h0q-5 0-5-7zM25 219h340v68H25zM25 189h340v26H25z" filter="url(#a)"/><path fill="#fff" stroke="#000" stroke-linecap="round" d="M25 42q0-7 5-7h380q5 0 5 7v112h0q0 7-5 7H30h0q-5 0-5-7zM25 219h340v68H25zM25 189h340v26H25z"/><path fill="none" stroke="#000" stroke-dasharray="5.0,5.0" stroke-linecap="butt" stroke-miterlimit="0" d="M85 231v28M195 231v42M185 245v14"/><text x="98" y="208" font-family="sans-serif" font-size="15"><![CDATA[BasicMem Feature Set]]></text><text x="30" y="236" font-family="sans-serif" font-size="15"><![CDATA[Check]]></text><text x="30" y="250" font-family="sans-serif" font-size="15"><![CDATA[Apply]]></text><text x="30" y="264" font-family="sans-serif" font-size="15"><![CDATA[Deref]]></text><text x="30" y="278" font-family="sans-serif" font-size="15"><![CDATA[Evolve]]></text><text x="100" y="236" font-family="sans-serif" font-size="15"><![CDATA[IRuleStat]]></text><text x="100" y="250" font-family="sans-serif" font-size="14"><![CDATA[BasicMem]]></text><text x="100" y="264" font-family="sans-serif" font-size="14"><![CDATA[BasicMem]]></text><text x="112" y="278" font-family="sans-serif" font-size="14"><![CDATA[BasicMem]]></text><text x="210" y="236" font-family="sans-serif" font-size="15"><![CDATA[check_on]]></text><text x="200" y="250" font-family="sans-serif" font-size="15"><![CDATA[apply_influences]]></text><text x="200" y="264" font-family="sans-serif" font-size="15"><![CDATA[effect_proc]]></text><text x="210" y="278" font-family="sans-serif" font-size="15"><![CDATA[evolve]]></text></g></svg>