<svg xmlns="http://www.w3.org/2000/svg" width="820" height="588" shape-rendering="geometricPrecision" version="1.0"><defs><filter id="a" width="200%" height="200%" x="0" y="0"><feOffset dx="3" dy="3" in="SourceGraphic" result="offOut"/><feGaussianBlur in="offOut" stdDeviation="3"/></filter></defs><g stroke-linecap="square" stroke-linejoin="round"><path d="M0 0h820v588H0z" style="fill:#fff"/><path fill="#969696" stroke="#969696" d="M25 35h770v518H25z" filter="url(#a)"/><path fill="#969696" stroke="#969696" d="M55 105h710v168H55zM45 399h510v70H45z" filter="url(#a)"/><path fill="#969696" stroke="#969696" d="M325 133h400v70H325zM45 315h370v70H45zM45 511h230v28H45zM545 63h220v28H545zM295 63h220v28H295zM55 63h210v28H55zM345 427h180v28H345zM585 427h180v28H585z" filter="url(#a)"/><path fill="#969696" stroke="#969696" d="M355 161h170v28H355zM605 357h170v28H605zM535 231h160v28H535zM575 315h160v28H575zM435 511h160v28H435zM615 511h160v28H615zM545 161h150v28H545zM65 343h150v28H65zM245 343h150v28H245zM445 357h140v28H445zM385 231h120v28H385zM295 511h120v28H295zM185 133h110v28H185zM445 315h110v28H445zM75 427h110v28H75zM85 231h100v28H85zM235 231h100v28H235zM215 427h100v28H215zM85 133h70v28H85z" filter="url(#a)"/><path fill="#fff" stroke="#000" stroke-linecap="round" d="M25 35h770v518H25z"/><path fill="#fff" stroke="#000" stroke-linecap="round" d="M55 105h710v168H55zM45 399h510v70H45z"/><path fill="#fff" stroke="#000" stroke-linecap="round" d="M325 133h400v70H325zM45 315h370v70H45zM45 511h230v28H45zM545 63h220v28H545zM295 63h220v28H295zM55 63h210v28H55zM345 427h180v28H345zM585 427h180v28H585z"/><path fill="#fff" stroke="#000" stroke-linecap="round" d="M355 161h170v28H355zM605 357h170v28H605zM535 231h160v28H535zM575 315h160v28H575zM435 511h160v28H435zM615 511h160v28H615zM545 161h150v28H545zM65 343h150v28H65zM245 343h150v28H245zM445 357h140v28H445zM385 231h120v28H385zM295 511h120v28H295zM185 133h110v28H185zM445 315h110v28H445zM75 427h110v28H75zM85 231h100v28H85zM235 231h100v28H235zM215 427h100v28H215zM85 133h70v28H85z"/><path d="m115 168-5 14h10zM135 168l-5 14h10z"/><path fill="none" stroke="#000" stroke-dasharray="5.0,5.0" stroke-linecap="butt" stroke-miterlimit="0" d="M115 175v56M135 175v28h130v28"/><text x="331" y="54" font-family="sans-serif" font-size="15"><![CDATA[Core Obstructions]]></text><text x="82" y="82" font-family="sans-serif" font-size="15"><![CDATA[Type Abbreviations]]></text><text x="324" y="82" font-family="sans-serif" font-size="15"><![CDATA[Intermittent Models]]></text><text x="566" y="82" font-family="sans-serif" font-size="15"><![CDATA[Constants and enums]]></text><text x="358" y="124" font-family="sans-serif" font-size="15"><![CDATA[Interfaces]]></text><text x="104" y="152" font-family="sans-serif" font-size="15"><![CDATA[IObj]]></text><text x="206" y="152" font-family="sans-serif" font-size="15"><![CDATA[IObjStat]]></text><text x="439" y="152" font-family="sans-serif" font-size="15"><![CDATA[Object Store Interfaces]]></text><text x="375" y="180" font-family="sans-serif" font-size="15"><![CDATA[IUntaggedStore]]></text><text x="565" y="180" font-family="sans-serif" font-size="15"><![CDATA[ITaggedStore]]></text><text x="115" y="250" font-family="sans-serif" font-size="15"><![CDATA[IRule]]></text><text x="260" y="250" font-family="sans-serif" font-size="13"><![CDATA[IMem]]></text><text x="407" y="250" font-family="sans-serif" font-size="15"><![CDATA[IRuleStat]]></text><text x="559" y="250" font-family="sans-serif" font-size="15"><![CDATA[EffectHandler]]></text><text x="358" y="306" font-family="sans-serif" font-size="15"><![CDATA[Basic Modules]]></text><text x="155" y="334" font-family="sans-serif" font-size="15"><![CDATA[Region Managers]]></text><text x="461" y="334" font-family="sans-serif" font-size="14"><![CDATA[BasicMem]]></text><text x="598" y="334" font-family="sans-serif" font-size="15"><![CDATA[BasicObjStore]]></text><text x="81" y="362" font-family="sans-serif" font-size="15"><![CDATA[CPUEnvRegion]]></text><text x="261" y="362" font-family="sans-serif" font-size="15"><![CDATA[GPUEnvRegion]]></text><text x="469" y="376" font-family="sans-serif" font-size="15"><![CDATA[BasicEffect]]></text><text x="631" y="376" font-family="sans-serif" font-size="15"><![CDATA[BasicCondition]]></text><text x="232" y="418" font-family="sans-serif" font-size="14"><![CDATA[CSC Components]]></text><text x="93" y="446" font-family="sans-serif" font-size="15"><![CDATA[Channels]]></text><text x="237" y="446" font-family="sans-serif" font-size="15"><![CDATA[Carrier]]></text><text x="366" y="446" font-family="sans-serif" font-size="15"><![CDATA[SendReceiveRule]]></text><text x="609" y="446" font-family="sans-serif" font-size="15"><![CDATA[BasicRuleStore]]></text><text x="359" y="502" font-family="sans-serif" font-size="15"><![CDATA[Miscellaneous]]></text><text x="77" y="530" font-family="sans-serif" font-size="15"><![CDATA[Helpers and builders]]></text><text x="317" y="530" font-family="sans-serif" font-size="15"><![CDATA[GPU Utils]]></text><text x="463" y="530" font-family="sans-serif" font-size="15"><![CDATA[Error and log]]></text><text x="640" y="530" font-family="sans-serif" font-size="15"><![CDATA[Outer Services]]></text></g></svg>