<svg xmlns="http://www.w3.org/2000/svg" width="433" height="376" baseProfile="full"><g stroke="#33322E" stroke-linecap="round" stroke-linejoin="round" stroke-width="2" font-family="Helvetica" font-size="16" font-weight="bold"><path fill="#fff" stroke="none" d="M0 0h433v376H0z"/><g fill="#33322E"><g data-name="TaggedObject"><g fill="#fff" data-name="TaggedObject"><path d="M9 9h255v358H9z" data-name="TaggedObject"/><path fill="none" d="M9 40h255M9 135h255M9 226h255" data-name="TaggedObject"/></g><text x="119.5" y="13.5" stroke="none" data-name="TaggedObject" text-anchor="middle" transform="translate(17 17)">TaggedObject</text><g data-name="TaggedObject" font-weight="normal"><g data-name="Type parameters"><g fill="#fff" data-name="Type parameters"><path d="M18 49h204v77H18z" data-name="Type parameters"/><path fill="none" d="M18 80h204" data-name="Type parameters"/></g><text x="94" y="13.5" stroke="none" data-name="Type parameters" font-weight="bold" text-anchor="middle" transform="translate(26 57)">Type parameters</text><g stroke="none" data-name="Type parameters"><text y="13.5" data-name="Type parameters" transform="translate(26 88)">Tag: Clone + Hash + Eq</text><text y="28.5" data-name="Type parameters" transform="translate(26 88)">Unit: Scalar</text></g></g></g><g stroke="none" data-name="TaggedObject" font-weight="normal"><text y="13.5" data-name="TaggedObject" transform="translate(17 143)">getType()</text><text y="28.5" data-name="TaggedObject" transform="translate(17 143)">getTag()</text><text y="43.5" data-name="TaggedObject" transform="translate(17 143)">getTmount()</text><text y="58.5" data-name="TaggedObject" transform="translate(17 143)">asAny()</text><text y="73.5" data-name="TaggedObject" transform="translate(17 143)">asAnyMut()</text></g><g data-name="TaggedObject" font-weight="normal"><g data-name="Properties"><g fill="#fff" data-name="Properties"><path d="M18 235h237v123H18z" data-name="Properties"/><path fill="none" d="M18 266h237M18 327h237" data-name="Properties"/></g><text x="110.5" y="13.5" stroke="none" data-name="Properties" font-weight="bold" text-anchor="middle" transform="translate(26 243)">Properties</text><g stroke="none" data-name="Properties"><text y="13.5" data-name="Properties" transform="translate(26 274)">ty: TypeId</text><text y="28.5" data-name="Properties" transform="translate(26 274)">tg: Tag</text><text y="43.5" data-name="Properties" transform="translate(26 274)">amount: Unit</text></g><text y="13.5" stroke="none" data-name="Properties" transform="translate(26 335)">...Other custom properties...</text></g></g></g><g data-name="UntaggedObj"><g fill="#fff" data-name="UntaggedObj"><path d="M304 134h120v108H304z" data-name="UntaggedObj"/><path fill="none" d="M304 165h120M304 196h120" data-name="UntaggedObj"/></g><text x="52" y="13.5" stroke="none" data-name="UntaggedObj" text-anchor="middle" transform="translate(312 142)">UntaggedObj</text><text y="13.5" stroke="none" data-name="UntaggedObj" font-weight="normal" transform="translate(312 173)">Unit: Scalar</text><g stroke="none" data-name="UntaggedObj" font-weight="normal"><text y="13.5" data-name="UntaggedObj" transform="translate(312 204)">ty: TypeId</text><text y="28.5" data-name="UntaggedObj" transform="translate(312 204)">amount: Unit</text></g></g></g></g></svg>