<svg xmlns="http://www.w3.org/2000/svg" width="162.5" height="275.5" baseProfile="full"><g stroke="#33322E" stroke-linecap="round" stroke-linejoin="round" stroke-width="2" font-family="Helvetica" font-size="16" font-weight="bold"><path fill="#fff" stroke="none" d="M0 0h162.5v275.5H0z"/><g fill="#33322E" font-weight="normal"><path fill="none" d="M71 37.5 47 59v13.333-.033"/><path d="m41.7 65.7 5.3 6.6 5.3-6.6L47 79Z"/><path fill="none" d="M47 110v20l13.57 15.049.03-.049"/><path d="m52.1 143.7 8.5 1.3-.5-8.5L65 150Z"/><path fill="none" d="m107 150 18-20V94.5h0V59h0l-19.038-17.086.038-.014"/><path d="m114.5 42.4-8.5-.5 1.4 8.4-6.4-12.8Z"/><text x="85" y="207.5" stroke="none" transform="translate(9 9)">no</text><path fill="none" d="M86 196.5v33.333-.033"/><path d="m80.7 223.2 5.3 6.6 5.3-6.6-5.3 13.3Z"/><circle cx="77" cy="15" r="12" stroke="none" data-name="start" transform="translate(9 9)"/><g data-name="plunder"><rect width="76" height="31" y="70" fill="#fff" data-name="plunder" rx="15.5" ry="15.5" transform="translate(9 9)"/><text x="30" y="13.5" stroke="none" data-name="plunder" text-anchor="middle" transform="translate(17 87)">plunder</text></g><g data-name="more loot"><path fill="#fff" d="m86 150 67.5 23.3L86 196.5l-67.5-23.2Z" data-name="more loot"/><text x="37" y="13.5" stroke="none" data-name="more loot" text-anchor="middle" transform="translate(49 165.75)">more loot</text></g><g data-name="e" transform="translate(9 9)"><circle cx="77" cy="242.5" r="10" data-name="e"/><circle cx="77" cy="242.5" r="6" stroke="none" data-name="e"/></g></g></g></svg>