<svg xmlns="http://www.w3.org/2000/svg" width="574" height="596" baseProfile="full"><g stroke="#33322E" stroke-linecap="round" stroke-linejoin="round" stroke-width="2" font-family="Helvetica" font-size="16" font-weight="bold"><path fill="#fff" stroke="none" d="M0 0h574v596H0z"/><g fill="#33322E"><g data-name="Rule"><g fill="#fff" data-name="Rule"><path d="M9 9h258v578H9z" data-name="Rule"/><path fill="none" d="M9 40h258M9 165h258M9 211h258M9 352h258" data-name="Rule"/></g><text x="121" y="13.5" stroke="none" data-name="Rule" text-anchor="middle" transform="translate(17 17)">Rule</text><g data-name="Rule" font-weight="normal"><g data-name="Type parameters"><g fill="#fff" data-name="Type parameters"><path d="M18 49h240v107H18z" data-name="Type parameters"/><path fill="none" d="M18 80h240" data-name="Type parameters"/></g><text x="112" y="13.5" stroke="none" data-name="Type parameters" font-weight="bold" text-anchor="middle" transform="translate(26 57)">Type parameters</text><g stroke="none" data-name="Type parameters"><text y="13.5" data-name="Type parameters" transform="translate(26 88)">ObjType: Clone + Hash + Eq</text><text y="28.5" data-name="Type parameters" transform="translate(26 88)">ObjUnit: Scalar</text><text y="43.5" data-name="Type parameters" transform="translate(26 88)">Condition: ICondition</text><text y="58.5" data-name="Type parameters" transform="translate(26 88)">Effect: IRuleEffect</text></g></g></g><g stroke="none" data-name="Rule" font-weight="normal"><text y="13.5" data-name="Rule" transform="translate(17 173)">getConditon()</text><text y="28.5" data-name="Rule" transform="translate(17 173)">getEffect()</text></g><g data-name="Rule" font-weight="normal"><g data-name="Properties"><g fill="#fff" data-name="Properties"><path d="M18 220h237v123H18z" data-name="Properties"/><path fill="none" d="M18 251h237M18 312h237" data-name="Properties"/></g><text x="110.5" y="13.5" stroke="none" data-name="Properties" font-weight="bold" text-anchor="middle" transform="translate(26 228)">Properties</text><g stroke="none" data-name="Properties"><text y="13.5" data-name="Properties" transform="translate(26 259)">ty: TypeId</text><text y="28.5" data-name="Properties" transform="translate(26 259)">tg: Tag</text><text y="43.5" data-name="Properties" transform="translate(26 259)">amount: Unit</text></g><text y="13.5" stroke="none" data-name="Properties" transform="translate(26 320)">...Other custom properties...</text></g></g><g data-name="Rule" font-weight="normal"><g data-name="AsRefObj"><g fill="#fff" data-name="AsRefObj"><path d="M18 361h222v217H18z" data-name="AsRefObj"/><path fill="none" d="M18 392h222M18 487h222" data-name="AsRefObj"/></g><text x="103" y="13.5" stroke="none" data-name="AsRefObj" font-weight="bold" text-anchor="middle" transform="translate(26 369)">AsRefObj</text><g data-name="AsRefObj"><g data-name="Type parameters"><g fill="#fff" data-name="Type parameters"><path d="M27 401h204v77H27z" data-name="Type parameters"/><path fill="none" d="M27 432h204" data-name="Type parameters"/></g><text x="94" y="13.5" stroke="none" data-name="Type parameters" font-weight="bold" text-anchor="middle" transform="translate(35 409)">Type parameters</text><g stroke="none" data-name="Type parameters"><text y="13.5" data-name="Type parameters" transform="translate(35 440)">Tag: Clone + Hash + Eq</text><text y="28.5" data-name="Type parameters" transform="translate(35 440)">Unit: Scalar</text></g></g></g><g stroke="none" data-name="AsRefObj"><text y="13.5" data-name="AsRefObj" transform="translate(26 495)">getType()</text><text y="28.5" data-name="AsRefObj" transform="translate(26 495)">getTag()</text><text y="43.5" data-name="AsRefObj" transform="translate(26 495)">getAmount()</text><text y="58.5" data-name="AsRefObj" transform="translate(26 495)">asAny()</text><text y="73.5" data-name="AsRefObj" transform="translate(26 495)">asAnyMut()</text></g></g></g></g><g data-name="Membrane"><g fill="#fff" data-name="Membrane"><path d="M307 9h258v578H307z" data-name="Membrane"/><path fill="none" d="M307 40h258M307 165h258M307 211h258M307 352h258" data-name="Membrane"/></g><text x="121" y="13.5" stroke="none" data-name="Membrane" text-anchor="middle" transform="translate(315 17)">Membrane</text><g data-name="Membrane" font-weight="normal"><g data-name="Type parameters"><g fill="#fff" data-name="Type parameters"><path d="M316 49h240v107H316z" data-name="Type parameters"/><path fill="none" d="M316 80h240" data-name="Type parameters"/></g><text x="112" y="13.5" stroke="none" data-name="Type parameters" font-weight="bold" text-anchor="middle" transform="translate(324 57)">Type parameters</text><g stroke="none" data-name="Type parameters"><text y="13.5" data-name="Type parameters" transform="translate(324 88)">ObjType: Clone + Hash + Eq</text><text y="28.5" data-name="Type parameters" transform="translate(324 88)">ObjUnit: Scalar</text><text y="43.5" data-name="Type parameters" transform="translate(324 88)">Condition</text><text y="58.5" data-name="Type parameters" transform="translate(324 88)">Effect</text></g></g></g><g stroke="none" data-name="Membrane" font-weight="normal"><text y="13.5" data-name="Membrane" transform="translate(315 173)">getConditon()</text><text y="28.5" data-name="Membrane" transform="translate(315 173)">getEffect()</text></g><g data-name="Membrane" font-weight="normal"><g data-name="Properties"><g fill="#fff" data-name="Properties"><path d="M316 220h237v123H316z" data-name="Properties"/><path fill="none" d="M316 251h237M316 312h237" data-name="Properties"/></g><text x="110.5" y="13.5" stroke="none" data-name="Properties" font-weight="bold" text-anchor="middle" transform="translate(324 228)">Properties</text><g stroke="none" data-name="Properties"><text y="13.5" data-name="Properties" transform="translate(324 259)">ty: TypeId</text><text y="28.5" data-name="Properties" transform="translate(324 259)">tg: Tag</text><text y="43.5" data-name="Properties" transform="translate(324 259)">amount: Unit</text></g><text y="13.5" stroke="none" data-name="Properties" transform="translate(324 320)">...Other custom properties...</text></g></g><g data-name="Membrane" font-weight="normal"><g data-name="AsRefObj"><g fill="#fff" data-name="AsRefObj"><path d="M316 361h222v217H316z" data-name="AsRefObj"/><path fill="none" d="M316 392h222M316 487h222" data-name="AsRefObj"/></g><text x="103" y="13.5" stroke="none" data-name="AsRefObj" font-weight="bold" text-anchor="middle" transform="translate(324 369)">AsRefObj</text><g data-name="AsRefObj"><g data-name="Type parameters"><g fill="#fff" data-name="Type parameters"><path d="M325 401h204v77H325z" data-name="Type parameters"/><path fill="none" d="M325 432h204" data-name="Type parameters"/></g><text x="94" y="13.5" stroke="none" data-name="Type parameters" font-weight="bold" text-anchor="middle" transform="translate(333 409)">Type parameters</text><g stroke="none" data-name="Type parameters"><text y="13.5" data-name="Type parameters" transform="translate(333 440)">Tag: Clone + Hash + Eq</text><text y="28.5" data-name="Type parameters" transform="translate(333 440)">Unit: Scalar</text></g></g></g><g stroke="none" data-name="AsRefObj"><text y="13.5" data-name="AsRefObj" transform="translate(324 495)">getType()</text><text y="28.5" data-name="AsRefObj" transform="translate(324 495)">getTag()</text><text y="43.5" data-name="AsRefObj" transform="translate(324 495)">getAmount()</text><text y="58.5" data-name="AsRefObj" transform="translate(324 495)">asAny()</text><text y="73.5" data-name="AsRefObj" transform="translate(324 495)">asAnyMut()</text></g></g></g></g></g></g></svg>