<svg xmlns="http://www.w3.org/2000/svg" width="730" height="658" shape-rendering="geometricPrecision" version="1.0"><defs><filter id="a" width="200%" height="200%" x="0" y="0"><feOffset dx="3" dy="3" in="SourceGraphic" result="offOut"/><feGaussianBlur in="offOut" stdDeviation="3"/></filter></defs><g stroke-linecap="square" stroke-linejoin="round"><path d="M0 0h730v658H0z" style="fill:#fff"/><path fill="#969696" stroke="#969696" d="M25 35h680v432H25z" filter="url(#a)"/><path fill="#969696" stroke="#969696" d="M105 70q0-7 5-7h330q5 0 5 7v126h0q0 7-5 7H110h0q-5 0-5-7zM105 266q0-7 5-7h330q5 0 5 7v126h0q0 7-5 7H110h0q-5 0-5-7zM535 63h90v140h-90zM535 259h90v140h-90zM275 553h180v70H275zM65 553h180v70H65z" filter="url(#a)"/><path fill="#969696" stroke="#969696" d="M135 280q0-7 5-7h110q5 0 5 7v84h0q0 7-5 7H140h0q-5 0-5-7zM295 280q0-7 5-7h110q5 0 5 7v84h0q0 7-5 7H300h0q-5 0-5-7zM95 427h210v40H95zM355 427h210v40H355zM135 84q0-7 5-7h100q5 0 5 7v56h0q0 7-5 7H140h0q-5 0-5-7zM305 84q0-7 5-7h100q5 0 5 7v56h0q0 7-5 7H310h0q-5 0-5-7z" filter="url(#a)"/><path fill="#969696" stroke="#969696" d="M145 294q0-7 5-7h10q5 0 5 7h0q0 7-5 7h-10 0q-5 0-5-7zM185 294q0-7 5-7h10q5 0 5 7h0q0 7-5 7h-10 0q-5 0-5-7zM225 294q0-7 5-7h10q5 0 5 7h0q0 7-5 7h-10 0q-5 0-5-7zM305 294q0-7 5-7h10q5 0 5 7h0q0 7-5 7h-10 0q-5 0-5-7zM345 294q0-7 5-7h10q5 0 5 7h0q0 7-5 7h-10 0q-5 0-5-7zM385 294q0-7 5-7h10q5 0 5 7h0q0 7-5 7h-10 0q-5 0-5-7zM145 322q0-7 5-7h10q5 0 5 7h0q0 7-5 7h-10 0q-5 0-5-7zM185 322q0-7 5-7h10q5 0 5 7h0q0 7-5 7h-10 0q-5 0-5-7zM225 322q0-7 5-7h10q5 0 5 7h0q0 7-5 7h-10 0q-5 0-5-7zM305 322q0-7 5-7h10q5 0 5 7h0q0 7-5 7h-10 0q-5 0-5-7zM345 322q0-7 5-7h10q5 0 5 7h0q0 7-5 7h-10 0q-5 0-5-7zM385 322q0-7 5-7h10q5 0 5 7h0q0 7-5 7h-10 0q-5 0-5-7z" filter="url(#a)"/><path fill="#fff" stroke="#fff" stroke-linecap="round" d="M485 553c30 7 150 7 180 0-30-7-150-7-180 0m0 0v70c30 10 150 10 180 0v-70"/><path fill="none" stroke="#000" stroke-linecap="round" d="M485 553c30 7 150 7 180 0-30-7-150-7-180 0m0 0v70c30 10 150 10 180 0v-70"/><path fill="#fff" stroke="#000" stroke-linecap="round" d="M25 35h680v432H25z"/><path fill="#fff" stroke="#000" stroke-linecap="round" d="M105 70q0-7 5-7h330q5 0 5 7v126h0q0 7-5 7H110h0q-5 0-5-7zM105 266q0-7 5-7h330q5 0 5 7v126h0q0 7-5 7H110h0q-5 0-5-7z"/><path fill="none" stroke="#000" stroke-linecap="round" d="M625 133h60v322H575M95 133H45v322h40"/><path fill="#fff" stroke="#000" stroke-linecap="round" d="M535 63h90v140h-90zM535 259h90v140h-90zM275 553h180v70H275zM65 553h180v70H65zM135 280q0-7 5-7h110q5 0 5 7v84h0q0 7-5 7H140h0q-5 0-5-7zM295 280q0-7 5-7h110q5 0 5 7v84h0q0 7-5 7H300h0q-5 0-5-7zM95 427h210v40H95zM355 427h210v40H355zM135 84q0-7 5-7h100q5 0 5 7v56h0q0 7-5 7H140h0q-5 0-5-7zM305 84q0-7 5-7h100q5 0 5 7v56h0q0 7-5 7H310h0q-5 0-5-7z"/><path fill="none" stroke="#000" stroke-linecap="round" d="M635 329h20v112h-90M95 329H65v112h20M485 175h-10v112h-30"/><path fill="#fff" stroke="#000" stroke-linecap="round" d="M145 294q0-7 5-7h10q5 0 5 7h0q0 7-5 7h-10 0q-5 0-5-7M185 294q0-7 5-7h10q5 0 5 7h0q0 7-5 7h-10 0q-5 0-5-7M225 294q0-7 5-7h10q5 0 5 7h0q0 7-5 7h-10 0q-5 0-5-7M305 294q0-7 5-7h10q5 0 5 7h0q0 7-5 7h-10 0q-5 0-5-7M345 294q0-7 5-7h10q5 0 5 7h0q0 7-5 7h-10 0q-5 0-5-7M385 294q0-7 5-7h10q5 0 5 7h0q0 7-5 7h-10 0q-5 0-5-7M145 322q0-7 5-7h10q5 0 5 7h0q0 7-5 7h-10 0q-5 0-5-7M185 322q0-7 5-7h10q5 0 5 7h0q0 7-5 7h-10 0q-5 0-5-7M225 322q0-7 5-7h10q5 0 5 7h0q0 7-5 7h-10 0q-5 0-5-7M305 322q0-7 5-7h10q5 0 5 7h0q0 7-5 7h-10 0q-5 0-5-7M345 322q0-7 5-7h10q5 0 5 7h0q0 7-5 7h-10 0q-5 0-5-7M385 322q0-7 5-7h10q5 0 5 7h0q0 7-5 7h-10 0q-5 0-5-7"/><path d="m520 84 10 7-10 7zM260 112l-10 7 10 7zM290 112l10 7-10 7zM90 126l10 7-10 7zM460 140l-10 7 10 7zM520 168l10 7-10 7zM275 210l-5 14h10zM270 238l5 14 5-14zM270 308l-10 7 10 7zM280 308l10 7-10 7zM90 322l10 7-10 7zM640 322l-10 7 10 7zM460 364l-10 7 10 7zM80 434l10 7-10 7zM80 448l10 7-10 7zM580 448l-10 7 10 7zM145 476l-5 14h10zM255 476l-5 14h10zM405 476l-5 14h10zM515 476l-5 14h10zM140 532l5 14 5-14zM320 532l5 14 5-14zM400 532l5 14 5-14zM570 532l5 14 5-14z"/><path fill="none" stroke="#000" stroke-linecap="round" d="M275 217v28M265 315h20M255 119h40M505 175h20M145 483v56M255 483v28h70v28M405 483v56M515 483v28h60v28M445 91h80M455 147h40v140h40M455 371h80"/><text x="315" y="54" font-family="sans-serif" font-size="15"><![CDATA[Emulator Program]]></text><text x="150" y="96" font-family="sans-serif" font-size="13"><![CDATA[CPU]]></text><text x="150" y="110" font-family="sans-serif" font-size="13"><![CDATA[Membrane]]></text><text x="150" y="124" font-family="sans-serif" font-size="15"><![CDATA[Instance]]></text><text x="320" y="96" font-family="sans-serif" font-size="13"><![CDATA[CPU]]></text><text x="320" y="110" font-family="sans-serif" font-size="13"><![CDATA[Membrane]]></text><text x="320" y="124" font-family="sans-serif" font-size="15"><![CDATA[Instance]]></text><text x="262" y="110" font-family="sans-serif" font-size="15"><![CDATA[ITC]]></text><text x="540" y="110" font-family="sans-serif" font-size="14"><![CDATA[Remote]]></text><text x="540" y="124" font-family="sans-serif" font-size="14"><![CDATA[Message]]></text><text x="540" y="138" font-family="sans-serif" font-size="15"><![CDATA[Encoder]]></text><text x="174" y="194" font-family="sans-serif" font-size="14"><![CDATA[CPU Membranes Manager]]></text><text x="262" y="306" fill="#fff" font-family="sans-serif" font-size="15"><![CDATA[ITC]]></text><text x="540" y="306" font-family="sans-serif" font-size="14"><![CDATA[Remote]]></text><text x="540" y="320" font-family="sans-serif" font-size="14"><![CDATA[Message]]></text><text x="540" y="334" font-family="sans-serif" font-size="15"><![CDATA[Decoder]]></text><text x="140" y="348" font-family="sans-serif" font-size="15"><![CDATA[GPU Region]]></text><text x="140" y="362" font-family="sans-serif" font-size="15"><![CDATA[Instance]]></text><text x="300" y="348" font-family="sans-serif" font-size="15"><![CDATA[GPU Region]]></text><text x="300" y="362" font-family="sans-serif" font-size="15"><![CDATA[Instance]]></text><text x="174" y="390" font-family="sans-serif" font-size="14"><![CDATA[GPU Membranes Manager]]></text><text x="160" y="446" font-family="sans-serif" font-size="15"><![CDATA[Services]]></text><text x="160" y="460" font-family="sans-serif" font-size="15"><![CDATA[Connector]]></text><text x="440" y="446" font-family="sans-serif" font-size="14"><![CDATA[Remote]]></text><text x="406" y="460" font-family="sans-serif" font-size="15"><![CDATA[Data Connector]]></text><text x="271" y="502" font-family="sans-serif" font-size="15"><![CDATA[IPC]]></text><text x="161" y="516" font-family="sans-serif" font-size="15"><![CDATA[IPC]]></text><text x="421" y="516" font-family="sans-serif" font-size="15"><![CDATA[IPC]]></text><text x="592" y="530" font-family="sans-serif" font-size="15"><![CDATA[Socket]]></text><text x="132" y="586" font-family="sans-serif" font-size="15"><![CDATA[Other]]></text><text x="126" y="600" font-family="sans-serif" font-size="15"><![CDATA[Services]]></text><text x="294" y="586" font-family="sans-serif" font-size="15"><![CDATA[Remote Emulator]]></text><text x="332" y="600" font-family="sans-serif" font-size="14"><![CDATA[Program]]></text><text x="541" y="586" font-family="sans-serif" font-size="15"><![CDATA[Database]]></text></g></svg>