<?xml version="1.0" encoding="UTF-8"?><svg xmlns="http://www.w3.org/2000/svg" width="1130" height="658" version="1.0" shape-rendering="geometricPrecision"><defs><filter id="shadowBlur" x="0" y="0" width="200%" height="200%"><feOffset in="SourceGraphic" dx="3.0003002" dy="3.0003002" result="offOut"></feOffset><feGaussianBlur in="offOut" stdDeviation="3"></feGaussianBlur></filter></defs><g stroke-width="1" stroke-linecap="square" stroke-linejoin="round"><rect x="0" y="0" width="1130" height="658" style="fill: #ffffff"></rect><path stroke="#969696" fill="#969696" filter="url(#shadowBlur)" d="M25.0 35.0 L675.0 35.0 L675.0 467.0 L25.0 467.0 z"></path><path stroke="#969696" fill="#969696" filter="url(#shadowBlur)" d="M75.0 70.0 Q75.0 63.0 80.0 63.0 L410.0 63.0 Q415.0 63.0 415.0 70.0 L415.0 196.0 L415.0 196.0 Q415.0 203.0 410.0 203.0 L80.0 203.0 L80.0 203.0 Q75.0 203.0 75.0 196.0 L75.0 70.0 z"></path><path stroke="#969696" fill="#969696" filter="url(#shadowBlur)" d="M75.0 266.0 Q75.0 259.0 80.0 259.0 L410.0 259.0 Q415.0 259.0 415.0 266.0 L415.0 392.0 L415.0 392.0 Q415.0 399.0 410.0 399.0 L80.0 399.0 L80.0 399.0 Q75.0 399.0 75.0 392.0 L75.0 266.0 z"></path><path stroke="#969696" fill="#969696" filter="url(#shadowBlur)" d="M95.0 553.0 L315.0 553.0 L315.0 623.0 L95.0 623.0 z"></path><path stroke="#969696" fill="#969696" filter="url(#shadowBlur)" d="M185.0 427.0 L535.0 427.0 L535.0 467.0 L185.0 467.0 z"></path><path stroke="#969696" fill="#969696" filter="url(#shadowBlur)" d="M505.0 63.0 L595.0 63.0 L595.0 203.0 L505.0 203.0 z"></path><path stroke="#969696" fill="#969696" filter="url(#shadowBlur)" d="M505.0 259.0 L595.0 259.0 L595.0 399.0 L505.0 399.0 z"></path><path stroke="#969696" fill="#969696" filter="url(#shadowBlur)" d="M105.0 280.0 Q105.0 273.0 110.0 273.0 L220.0 273.0 Q225.0 273.0 225.0 280.0 L225.0 364.0 L225.0 364.0 Q225.0 371.0 220.0 371.0 L110.0 371.0 L110.0 371.0 Q105.0 371.0 105.0 364.0 L105.0 280.0 z"></path><path stroke="#969696" fill="#969696" filter="url(#shadowBlur)" d="M265.0 280.0 Q265.0 273.0 270.0 273.0 L380.0 273.0 Q385.0 273.0 385.0 280.0 L385.0 364.0 L385.0 364.0 Q385.0 371.0 380.0 371.0 L270.0 371.0 L270.0 371.0 Q265.0 371.0 265.0 364.0 L265.0 280.0 z"></path><path stroke="#969696" fill="#969696" filter="url(#shadowBlur)" d="M105.0 84.0 Q105.0 77.0 110.0 77.0 L210.0 77.0 Q215.0 77.0 215.0 84.0 L215.0 140.0 L215.0 140.0 Q215.0 147.0 210.0 147.0 L110.0 147.0 L110.0 147.0 Q105.0 147.0 105.0 140.0 L105.0 84.0 z"></path><path stroke="#969696" fill="#969696" filter="url(#shadowBlur)" d="M275.0 84.0 Q275.0 77.0 280.0 77.0 L380.0 77.0 Q385.0 77.0 385.0 84.0 L385.0 140.0 L385.0 140.0 Q385.0 147.0 380.0 147.0 L280.0 147.0 L280.0 147.0 Q275.0 147.0 275.0 140.0 L275.0 84.0 z"></path><path stroke="#969696" fill="#969696" filter="url(#shadowBlur)" d="M115.0 294.0 Q115.0 287.0 120.0 287.0 L130.0 287.0 Q135.0 287.0 135.0 294.0 L135.0 294.0 L135.0 294.0 Q135.0 301.0 130.0 301.0 L120.0 301.0 L120.0 301.0 Q115.0 301.0 115.0 294.0 L115.0 294.0 z"></path><path stroke="#969696" fill="#969696" filter="url(#shadowBlur)" d="M155.0 294.0 Q155.0 287.0 160.0 287.0 L170.0 287.0 Q175.0 287.0 175.0 294.0 L175.0 294.0 L175.0 294.0 Q175.0 301.0 170.0 301.0 L160.0 301.0 L160.0 301.0 Q155.0 301.0 155.0 294.0 L155.0 294.0 z"></path><path stroke="#969696" fill="#969696" filter="url(#shadowBlur)" d="M195.0 294.0 Q195.0 287.0 200.0 287.0 L210.0 287.0 Q215.0 287.0 215.0 294.0 L215.0 294.0 L215.0 294.0 Q215.0 301.0 210.0 301.0 L200.0 301.0 L200.0 301.0 Q195.0 301.0 195.0 294.0 L195.0 294.0 z"></path><path stroke="#969696" fill="#969696" filter="url(#shadowBlur)" d="M275.0 294.0 Q275.0 287.0 280.0 287.0 L290.0 287.0 Q295.0 287.0 295.0 294.0 L295.0 294.0 L295.0 294.0 Q295.0 301.0 290.0 301.0 L280.0 301.0 L280.0 301.0 Q275.0 301.0 275.0 294.0 L275.0 294.0 z"></path><path stroke="#969696" fill="#969696" filter="url(#shadowBlur)" d="M315.0 294.0 Q315.0 287.0 320.0 287.0 L330.0 287.0 Q335.0 287.0 335.0 294.0 L335.0 294.0 L335.0 294.0 Q335.0 301.0 330.0 301.0 L320.0 301.0 L320.0 301.0 Q315.0 301.0 315.0 294.0 L315.0 294.0 z"></path><path stroke="#969696" fill="#969696" filter="url(#shadowBlur)" d="M355.0 294.0 Q355.0 287.0 360.0 287.0 L370.0 287.0 Q375.0 287.0 375.0 294.0 L375.0 294.0 L375.0 294.0 Q375.0 301.0 370.0 301.0 L360.0 301.0 L360.0 301.0 Q355.0 301.0 355.0 294.0 L355.0 294.0 z"></path><path stroke="#969696" fill="#969696" filter="url(#shadowBlur)" d="M115.0 322.0 Q115.0 315.0 120.0 315.0 L130.0 315.0 Q135.0 315.0 135.0 322.0 L135.0 322.0 L135.0 322.0 Q135.0 329.0 130.0 329.0 L120.0 329.0 L120.0 329.0 Q115.0 329.0 115.0 322.0 L115.0 322.0 z"></path><path stroke="#969696" fill="#969696" filter="url(#shadowBlur)" d="M155.0 322.0 Q155.0 315.0 160.0 315.0 L170.0 315.0 Q175.0 315.0 175.0 322.0 L175.0 322.0 L175.0 322.0 Q175.0 329.0 170.0 329.0 L160.0 329.0 L160.0 329.0 Q155.0 329.0 155.0 322.0 L155.0 322.0 z"></path><path stroke="#969696" fill="#969696" filter="url(#shadowBlur)" d="M195.0 322.0 Q195.0 315.0 200.0 315.0 L210.0 315.0 Q215.0 315.0 215.0 322.0 L215.0 322.0 L215.0 322.0 Q215.0 329.0 210.0 329.0 L200.0 329.0 L200.0 329.0 Q195.0 329.0 195.0 322.0 L195.0 322.0 z"></path><path stroke="#969696" fill="#969696" filter="url(#shadowBlur)" d="M275.0 322.0 Q275.0 315.0 280.0 315.0 L290.0 315.0 Q295.0 315.0 295.0 322.0 L295.0 322.0 L295.0 322.0 Q295.0 329.0 290.0 329.0 L280.0 329.0 L280.0 329.0 Q275.0 329.0 275.0 322.0 L275.0 322.0 z"></path><path stroke="#969696" fill="#969696" filter="url(#shadowBlur)" d="M315.0 322.0 Q315.0 315.0 320.0 315.0 L330.0 315.0 Q335.0 315.0 335.0 322.0 L335.0 322.0 L335.0 322.0 Q335.0 329.0 330.0 329.0 L320.0 329.0 L320.0 329.0 Q315.0 329.0 315.0 322.0 L315.0 322.0 z"></path><path stroke="#969696" fill="#969696" filter="url(#shadowBlur)" d="M355.0 322.0 Q355.0 315.0 360.0 315.0 L370.0 315.0 Q375.0 315.0 375.0 322.0 L375.0 322.0 L375.0 322.0 Q375.0 329.0 370.0 329.0 L360.0 329.0 L360.0 329.0 Q355.0 329.0 355.0 322.0 L355.0 322.0 z"></path><path stroke="white" stroke-width="1.0" stroke-linecap="round" stroke-linejoin="round" fill="#ffffff" d="M405.0 553.0 C441.0 560.0 589.0 560.0 625.0 553.0 C589.0 546.0 441.0 546.0 405.0 553.0 M405.0 553.0 L405.0 623.0 C441.0 633.0 589.0 633.0 625.0 623.0 L625.0 553.0 "></path><path stroke="#000000" stroke-width="1.0" stroke-linecap="round" stroke-linejoin="round" fill="none" d="M405.0 553.0 C441.0 560.0 589.0 560.0 625.0 553.0 C589.0 546.0 441.0 546.0 405.0 553.0 M405.0 553.0 L405.0 623.0 C441.0 633.0 589.0 633.0 625.0 623.0 L625.0 553.0 "></path><path stroke="#000000" stroke-width="1.0" stroke-linecap="round" stroke-linejoin="round" fill="white" d="M25.0 35.0 L675.0 35.0 L675.0 467.0 L25.0 467.0 z"></path><path stroke="#000000" stroke-width="1.0" stroke-linecap="round" stroke-linejoin="round" fill="white" d="M75.0 70.0 Q75.0 63.0 80.0 63.0 L410.0 63.0 Q415.0 63.0 415.0 70.0 L415.0 196.0 L415.0 196.0 Q415.0 203.0 410.0 203.0 L80.0 203.0 L80.0 203.0 Q75.0 203.0 75.0 196.0 L75.0 70.0 z"></path><path stroke="#000000" stroke-width="1.0" stroke-linecap="round" stroke-linejoin="round" fill="white" d="M75.0 266.0 Q75.0 259.0 80.0 259.0 L410.0 259.0 Q415.0 259.0 415.0 266.0 L415.0 392.0 L415.0 392.0 Q415.0 399.0 410.0 399.0 L80.0 399.0 L80.0 399.0 Q75.0 399.0 75.0 392.0 L75.0 266.0 z"></path><path stroke="#000000" stroke-width="1.0" stroke-linecap="round" stroke-linejoin="round" fill="none" d="M595.0 133.0 L655.0 133.0 L655.0 455.0 L545.0 455.0 "></path><path stroke="#000000" stroke-width="1.0" stroke-linecap="round" stroke-linejoin="round" fill="white" d="M95.0 553.0 L315.0 553.0 L315.0 623.0 L95.0 623.0 z"></path><path stroke="#000000" stroke-width="1.0" stroke-linecap="round" stroke-linejoin="round" fill="white" d="M185.0 427.0 L535.0 427.0 L535.0 467.0 L185.0 467.0 z"></path><path stroke="#000000" stroke-width="1.0" stroke-linecap="round" stroke-linejoin="round" fill="white" d="M505.0 63.0 L595.0 63.0 L595.0 203.0 L505.0 203.0 z"></path><path stroke="#000000" stroke-width="1.0" stroke-linecap="round" stroke-linejoin="round" fill="white" d="M505.0 259.0 L595.0 259.0 L595.0 399.0 L505.0 399.0 z"></path><path stroke="#000000" stroke-width="1.0" stroke-linecap="round" stroke-linejoin="round" fill="white" d="M105.0 280.0 Q105.0 273.0 110.0 273.0 L220.0 273.0 Q225.0 273.0 225.0 280.0 L225.0 364.0 L225.0 364.0 Q225.0 371.0 220.0 371.0 L110.0 371.0 L110.0 371.0 Q105.0 371.0 105.0 364.0 L105.0 280.0 z"></path><path stroke="#000000" stroke-width="1.0" stroke-linecap="round" stroke-linejoin="round" fill="white" d="M265.0 280.0 Q265.0 273.0 270.0 273.0 L380.0 273.0 Q385.0 273.0 385.0 280.0 L385.0 364.0 L385.0 364.0 Q385.0 371.0 380.0 371.0 L270.0 371.0 L270.0 371.0 Q265.0 371.0 265.0 364.0 L265.0 280.0 z"></path><path stroke="#000000" stroke-width="1.0" stroke-linecap="round" stroke-linejoin="round" fill="white" d="M105.0 84.0 Q105.0 77.0 110.0 77.0 L210.0 77.0 Q215.0 77.0 215.0 84.0 L215.0 140.0 L215.0 140.0 Q215.0 147.0 210.0 147.0 L110.0 147.0 L110.0 147.0 Q105.0 147.0 105.0 140.0 L105.0 84.0 z"></path><path stroke="#000000" stroke-width="1.0" stroke-linecap="round" stroke-linejoin="round" fill="white" d="M275.0 84.0 Q275.0 77.0 280.0 77.0 L380.0 77.0 Q385.0 77.0 385.0 84.0 L385.0 140.0 L385.0 140.0 Q385.0 147.0 380.0 147.0 L280.0 147.0 L280.0 147.0 Q275.0 147.0 275.0 140.0 L275.0 84.0 z"></path><path stroke="#000000" stroke-width="1.0" stroke-linecap="round" stroke-linejoin="round" fill="none" d="M605.0 329.0 L625.0 329.0 L625.0 441.0 L535.0 441.0 "></path><path stroke="#000000" stroke-width="1.0" stroke-linecap="round" stroke-linejoin="round" fill="none" d="M455.0 175.0 L445.0 175.0 L445.0 287.0 L415.0 287.0 "></path><path stroke="#000000" stroke-width="1.0" stroke-linecap="round" stroke-linejoin="round" fill="white" d="M115.0 294.0 Q115.0 287.0 120.0 287.0 L130.0 287.0 Q135.0 287.0 135.0 294.0 L135.0 294.0 L135.0 294.0 Q135.0 301.0 130.0 301.0 L120.0 301.0 L120.0 301.0 Q115.0 301.0 115.0 294.0 L115.0 294.0 z"></path><path stroke="#000000" stroke-width="1.0" stroke-linecap="round" stroke-linejoin="round" fill="white" d="M155.0 294.0 Q155.0 287.0 160.0 287.0 L170.0 287.0 Q175.0 287.0 175.0 294.0 L175.0 294.0 L175.0 294.0 Q175.0 301.0 170.0 301.0 L160.0 301.0 L160.0 301.0 Q155.0 301.0 155.0 294.0 L155.0 294.0 z"></path><path stroke="#000000" stroke-width="1.0" stroke-linecap="round" stroke-linejoin="round" fill="white" d="M195.0 294.0 Q195.0 287.0 200.0 287.0 L210.0 287.0 Q215.0 287.0 215.0 294.0 L215.0 294.0 L215.0 294.0 Q215.0 301.0 210.0 301.0 L200.0 301.0 L200.0 301.0 Q195.0 301.0 195.0 294.0 L195.0 294.0 z"></path><path stroke="#000000" stroke-width="1.0" stroke-linecap="round" stroke-linejoin="round" fill="white" d="M275.0 294.0 Q275.0 287.0 280.0 287.0 L290.0 287.0 Q295.0 287.0 295.0 294.0 L295.0 294.0 L295.0 294.0 Q295.0 301.0 290.0 301.0 L280.0 301.0 L280.0 301.0 Q275.0 301.0 275.0 294.0 L275.0 294.0 z"></path><path stroke="#000000" stroke-width="1.0" stroke-linecap="round" stroke-linejoin="round" fill="white" d="M315.0 294.0 Q315.0 287.0 320.0 287.0 L330.0 287.0 Q335.0 287.0 335.0 294.0 L335.0 294.0 L335.0 294.0 Q335.0 301.0 330.0 301.0 L320.0 301.0 L320.0 301.0 Q315.0 301.0 315.0 294.0 L315.0 294.0 z"></path><path stroke="#000000" stroke-width="1.0" stroke-linecap="round" stroke-linejoin="round" fill="white" d="M355.0 294.0 Q355.0 287.0 360.0 287.0 L370.0 287.0 Q375.0 287.0 375.0 294.0 L375.0 294.0 L375.0 294.0 Q375.0 301.0 370.0 301.0 L360.0 301.0 L360.0 301.0 Q355.0 301.0 355.0 294.0 L355.0 294.0 z"></path><path stroke="#000000" stroke-width="1.0" stroke-linecap="round" stroke-linejoin="round" fill="white" d="M115.0 322.0 Q115.0 315.0 120.0 315.0 L130.0 315.0 Q135.0 315.0 135.0 322.0 L135.0 322.0 L135.0 322.0 Q135.0 329.0 130.0 329.0 L120.0 329.0 L120.0 329.0 Q115.0 329.0 115.0 322.0 L115.0 322.0 z"></path><path stroke="#000000" stroke-width="1.0" stroke-linecap="round" stroke-linejoin="round" fill="white" d="M155.0 322.0 Q155.0 315.0 160.0 315.0 L170.0 315.0 Q175.0 315.0 175.0 322.0 L175.0 322.0 L175.0 322.0 Q175.0 329.0 170.0 329.0 L160.0 329.0 L160.0 329.0 Q155.0 329.0 155.0 322.0 L155.0 322.0 z"></path><path stroke="#000000" stroke-width="1.0" stroke-linecap="round" stroke-linejoin="round" fill="white" d="M195.0 322.0 Q195.0 315.0 200.0 315.0 L210.0 315.0 Q215.0 315.0 215.0 322.0 L215.0 322.0 L215.0 322.0 Q215.0 329.0 210.0 329.0 L200.0 329.0 L200.0 329.0 Q195.0 329.0 195.0 322.0 L195.0 322.0 z"></path><path stroke="#000000" stroke-width="1.0" stroke-linecap="round" stroke-linejoin="round" fill="white" d="M275.0 322.0 Q275.0 315.0 280.0 315.0 L290.0 315.0 Q295.0 315.0 295.0 322.0 L295.0 322.0 L295.0 322.0 Q295.0 329.0 290.0 329.0 L280.0 329.0 L280.0 329.0 Q275.0 329.0 275.0 322.0 L275.0 322.0 z"></path><path stroke="#000000" stroke-width="1.0" stroke-linecap="round" stroke-linejoin="round" fill="white" d="M315.0 322.0 Q315.0 315.0 320.0 315.0 L330.0 315.0 Q335.0 315.0 335.0 322.0 L335.0 322.0 L335.0 322.0 Q335.0 329.0 330.0 329.0 L320.0 329.0 L320.0 329.0 Q315.0 329.0 315.0 322.0 L315.0 322.0 z"></path><path stroke="#000000" stroke-width="1.0" stroke-linecap="round" stroke-linejoin="round" fill="white" d="M355.0 322.0 Q355.0 315.0 360.0 315.0 L370.0 315.0 Q375.0 315.0 375.0 322.0 L375.0 322.0 L375.0 322.0 Q375.0 329.0 370.0 329.0 L360.0 329.0 L360.0 329.0 Q355.0 329.0 355.0 322.0 L355.0 322.0 z"></path><path stroke="none" stroke-width="1.0" stroke-linecap="round" stroke-linejoin="round" fill="#000000" d="M490.0 84.0 L500.0 91.0 L490.0 98.0 z"></path><path stroke="none" stroke-width="1.0" stroke-linecap="round" stroke-linejoin="round" fill="#000000" d="M230.0 112.0 L220.0 119.0 L230.0 126.0 z"></path><path stroke="none" stroke-width="1.0" stroke-linecap="round" stroke-linejoin="round" fill="#000000" d="M260.0 112.0 L270.0 119.0 L260.0 126.0 z"></path><path stroke="none" stroke-width="1.0" stroke-linecap="round" stroke-linejoin="round" fill="#000000" d="M430.0 140.0 L420.0 147.0 L430.0 154.0 z"></path><path stroke="none" stroke-width="1.0" stroke-linecap="round" stroke-linejoin="round" fill="#000000" d="M490.0 168.0 L500.0 175.0 L490.0 182.0 z"></path><path stroke="none" stroke-width="1.0" stroke-linecap="round" stroke-linejoin="round" fill="#000000" d="M245.0 210.0 L240.0 224.0 L250.0 224.0 z"></path><path stroke="none" stroke-width="1.0" stroke-linecap="round" stroke-linejoin="round" fill="#000000" d="M240.0 238.0 L245.0 252.0 L250.0 238.0 z"></path><path stroke="none" stroke-width="1.0" stroke-linecap="round" stroke-linejoin="round" fill="#000000" d="M240.0 308.0 L230.0 315.0 L240.0 322.0 z"></path><path stroke="none" stroke-width="1.0" stroke-linecap="round" stroke-linejoin="round" fill="#000000" d="M250.0 308.0 L260.0 315.0 L250.0 322.0 z"></path><path stroke="none" stroke-width="1.0" stroke-linecap="round" stroke-linejoin="round" fill="#000000" d="M610.0 322.0 L600.0 329.0 L610.0 336.0 z"></path><path stroke="none" stroke-width="1.0" stroke-linecap="round" stroke-linejoin="round" fill="#000000" d="M430.0 364.0 L420.0 371.0 L430.0 378.0 z"></path><path stroke="none" stroke-width="1.0" stroke-linecap="round" stroke-linejoin="round" fill="#000000" d="M550.0 448.0 L540.0 455.0 L550.0 462.0 z"></path><path stroke="none" stroke-width="1.0" stroke-linecap="round" stroke-linejoin="round" fill="#000000" d="M205.0 476.0 L200.0 490.0 L210.0 490.0 z"></path><path stroke="none" stroke-width="1.0" stroke-linecap="round" stroke-linejoin="round" fill="#000000" d="M515.0 476.0 L510.0 490.0 L520.0 490.0 z"></path><path stroke="none" stroke-width="1.0" stroke-linecap="round" stroke-linejoin="round" fill="#000000" d="M200.0 532.0 L205.0 546.0 L210.0 532.0 z"></path><path stroke="none" stroke-width="1.0" stroke-linecap="round" stroke-linejoin="round" fill="#000000" d="M510.0 532.0 L515.0 546.0 L520.0 532.0 z"></path><path stroke="#000000" stroke-width="1.0" stroke-linecap="round" stroke-linejoin="round" fill="none" d="M245.0 217.0 L245.0 245.0 "></path><path stroke="#000000" stroke-width="1.0" stroke-linecap="round" stroke-linejoin="round" fill="none" d="M235.0 315.0 L255.0 315.0 "></path><path stroke="#000000" stroke-width="1.0" stroke-linecap="round" stroke-linejoin="round" fill="none" d="M225.0 119.0 L265.0 119.0 "></path><path stroke="#000000" stroke-width="1.0" stroke-linecap="round" stroke-linejoin="round" fill="none" d="M475.0 175.0 L495.0 175.0 "></path><path stroke="#000000" stroke-width="1.0" stroke-linecap="round" stroke-linejoin="round" fill="none" d="M205.0 483.0 L205.0 539.0 "></path><path stroke="#000000" stroke-width="1.0" stroke-linecap="round" stroke-linejoin="round" fill="none" d="M515.0 483.0 L515.0 539.0 "></path><path stroke="#000000" stroke-width="1.0" stroke-linecap="round" stroke-linejoin="round" fill="none" d="M415.0 91.0 L495.0 91.0 "></path><path stroke="#000000" stroke-width="1.0" stroke-linecap="round" stroke-linejoin="round" fill="none" d="M425.0 147.0 L465.0 147.0 L465.0 287.0 L505.0 287.0 "></path><path stroke="#000000" stroke-width="1.0" stroke-linecap="round" stroke-linejoin="round" fill="none" d="M425.0 371.0 L505.0 371.0 "></path><text x="285" y="54" font-family="sans-serif" font-size="15" stroke="none" fill="#000000"><![CDATA[Emulator Program]]></text><text x="452" y="82" font-family="sans-serif" font-size="15" stroke="none" fill="#000000"><![CDATA[ITC]]></text><text x="120" y="96" font-family="sans-serif" font-size="13" stroke="none" fill="#000000"><![CDATA[CPU]]></text><text x="120" y="110" font-family="sans-serif" font-size="13" stroke="none" fill="#000000"><![CDATA[Membrane]]></text><text x="120" y="124" font-family="sans-serif" font-size="15" stroke="none" fill="#000000"><![CDATA[Instance]]></text><text x="290" y="96" font-family="sans-serif" font-size="13" stroke="none" fill="#000000"><![CDATA[CPU]]></text><text x="290" y="110" font-family="sans-serif" font-size="13" stroke="none" fill="#000000"><![CDATA[Membrane]]></text><text x="290" y="124" font-family="sans-serif" font-size="15" stroke="none" fill="#000000"><![CDATA[Instance]]></text><text x="232" y="110" font-family="sans-serif" font-size="15" stroke="none" fill="#000000"><![CDATA[ITC]]></text><text x="510" y="110" font-family="sans-serif" font-size="14" stroke="none" fill="#000000"><![CDATA[Remote]]></text><text x="510" y="124" font-family="sans-serif" font-size="14" stroke="none" fill="#000000"><![CDATA[Message]]></text><text x="510" y="138" font-family="sans-serif" font-size="15" stroke="none" fill="#000000"><![CDATA[Encoder]]></text><text x="452" y="138" font-family="sans-serif" font-size="15" stroke="none" fill="#000000"><![CDATA[ITC]]></text><text x="144" y="180" font-family="sans-serif" font-size="14" stroke="none" fill="#000000"><![CDATA[CPU Membranes Manager]]></text><text x="252" y="236" font-family="sans-serif" font-size="15" stroke="none" fill="#000000"><![CDATA[ITC]]></text><text x="232" y="306" font-family="sans-serif" font-size="15" stroke="none" fill="#ffffff"><![CDATA[ITC]]></text><text x="510" y="306" font-family="sans-serif" font-size="14" stroke="none" fill="#000000"><![CDATA[Remote]]></text><text x="510" y="320" font-family="sans-serif" font-size="14" stroke="none" fill="#000000"><![CDATA[Message]]></text><text x="510" y="334" font-family="sans-serif" font-size="15" stroke="none" fill="#000000"><![CDATA[Decoder]]></text><text x="110" y="348" font-family="sans-serif" font-size="15" stroke="none" fill="#000000"><![CDATA[GPU Region]]></text><text x="110" y="362" font-family="sans-serif" font-size="15" stroke="none" fill="#000000"><![CDATA[Instance]]></text><text x="270" y="348" font-family="sans-serif" font-size="15" stroke="none" fill="#000000"><![CDATA[GPU Region]]></text><text x="270" y="362" font-family="sans-serif" font-size="15" stroke="none" fill="#000000"><![CDATA[Instance]]></text><text x="452" y="362" font-family="sans-serif" font-size="15" stroke="none" fill="#000000"><![CDATA[ITC]]></text><text x="144" y="390" font-family="sans-serif" font-size="14" stroke="none" fill="#000000"><![CDATA[GPU Membranes Manager]]></text><text x="284" y="460" font-family="sans-serif" font-size="15" stroke="none" fill="#000000"><![CDATA[Remote Connector]]></text><text x="211" y="516" font-family="sans-serif" font-size="15" stroke="none" fill="#000000"><![CDATA[IPC]]></text><text x="522" y="516" font-family="sans-serif" font-size="15" stroke="none" fill="#000000"><![CDATA[Socket]]></text><text x="134" y="586" font-family="sans-serif" font-size="15" stroke="none" fill="#000000"><![CDATA[Remote Emulator]]></text><text x="172" y="600" font-family="sans-serif" font-size="14" stroke="none" fill="#000000"><![CDATA[Program]]></text><text x="481" y="586" font-family="sans-serif" font-size="15" stroke="none" fill="#000000"><![CDATA[Database]]></text></g></svg>