<?xml version="1.0" encoding="UTF-8"?><svg xmlns="http://www.w3.org/2000/svg" width="440" height="322" version="1.0" shape-rendering="geometricPrecision"><defs><filter id="shadowBlur" x="0" y="0" width="200%" height="200%"><feOffset in="SourceGraphic" dx="3.0003002" dy="3.0003002" result="offOut"></feOffset><feGaussianBlur in="offOut" stdDeviation="3"></feGaussianBlur></filter></defs><g stroke-width="1" stroke-linecap="square" stroke-linejoin="round"><rect x="0" y="0" width="440" height="322" style="fill: #ffffff"></rect><path stroke="#969696" fill="#969696" filter="url(#shadowBlur)" d="M25.0 42.0 Q25.0 35.0 30.0 35.0 L410.0 35.0 Q415.0 35.0 415.0 42.0 L415.0 154.0 L415.0 154.0 Q415.0 161.0 410.0 161.0 L30.0 161.0 L30.0 161.0 Q25.0 161.0 25.0 154.0 L25.0 42.0 z"></path><path stroke="#969696" fill="#969696" filter="url(#shadowBlur)" d="M25.0 219.0 L365.0 219.0 L365.0 287.0 L25.0 287.0 z"></path><path stroke="#969696" fill="#969696" filter="url(#shadowBlur)" d="M25.0 189.0 L365.0 189.0 L365.0 215.0 L25.0 215.0 z"></path><path stroke="#000000" stroke-width="1.0" stroke-linecap="round" stroke-linejoin="round" fill="white" d="M25.0 42.0 Q25.0 35.0 30.0 35.0 L410.0 35.0 Q415.0 35.0 415.0 42.0 L415.0 154.0 L415.0 154.0 Q415.0 161.0 410.0 161.0 L30.0 161.0 L30.0 161.0 Q25.0 161.0 25.0 154.0 L25.0 42.0 z"></path><path stroke="#000000" stroke-width="1.0" stroke-linecap="round" stroke-linejoin="round" fill="white" d="M25.0 219.0 L365.0 219.0 L365.0 287.0 L25.0 287.0 z"></path><path stroke="#000000" stroke-width="1.0" stroke-linecap="round" stroke-linejoin="round" fill="white" d="M25.0 189.0 L365.0 189.0 L365.0 215.0 L25.0 215.0 z"></path><path stroke="#000000" stroke-width="1.0" stroke-dasharray="5.0,5.0" stroke-miterlimit="0" stroke-linecap="butt" stroke-linejoin="round" fill="none" d="M85.0 231.0 L85.0 259.0 "></path><path stroke="#000000" stroke-width="1.0" stroke-dasharray="5.0,5.0" stroke-miterlimit="0" stroke-linecap="butt" stroke-linejoin="round" fill="none" d="M195.0 231.0 L195.0 273.0 "></path><path stroke="#000000" stroke-width="1.0" stroke-dasharray="5.0,5.0" stroke-miterlimit="0" stroke-linecap="butt" stroke-linejoin="round" fill="none" d="M185.0 245.0 L185.0 259.0 "></path><text x="98" y="208" font-family="sans-serif" font-size="15" stroke="none" fill="#000000"><![CDATA[BasicMem Feature Set]]></text><text x="30" y="236" font-family="sans-serif" font-size="15" stroke="none" fill="#000000"><![CDATA[Check]]></text><text x="30" y="250" font-family="sans-serif" font-size="15" stroke="none" fill="#000000"><![CDATA[Apply]]></text><text x="30" y="264" font-family="sans-serif" font-size="15" stroke="none" fill="#000000"><![CDATA[Deref]]></text><text x="30" y="278" font-family="sans-serif" font-size="15" stroke="none" fill="#000000"><![CDATA[Evolve]]></text><text x="100" y="236" font-family="sans-serif" font-size="15" stroke="none" fill="#000000"><![CDATA[IRuleStat]]></text><text x="100" y="250" font-family="sans-serif" font-size="14" stroke="none" fill="#000000"><![CDATA[BasicMem]]></text><text x="100" y="264" font-family="sans-serif" font-size="14" stroke="none" fill="#000000"><![CDATA[BasicMem]]></text><text x="112" y="278" font-family="sans-serif" font-size="14" stroke="none" fill="#000000"><![CDATA[BasicMem]]></text><text x="210" y="236" font-family="sans-serif" font-size="15" stroke="none" fill="#000000"><![CDATA[check_on]]></text><text x="200" y="250" font-family="sans-serif" font-size="15" stroke="none" fill="#000000"><![CDATA[apply_influences]]></text><text x="200" y="264" font-family="sans-serif" font-size="15" stroke="none" fill="#000000"><![CDATA[effect_proc]]></text><text x="210" y="278" font-family="sans-serif" font-size="15" stroke="none" fill="#000000"><![CDATA[evolve]]></text></g></svg>