<?xml version="1.0" encoding="UTF-8"?><svg xmlns="http://www.w3.org/2000/svg" width="820" height="588" version="1.0" shape-rendering="geometricPrecision"><defs><filter id="shadowBlur" x="0" y="0" width="200%" height="200%"><feOffset in="SourceGraphic" dx="3.0003002" dy="3.0003002" result="offOut"></feOffset><feGaussianBlur in="offOut" stdDeviation="3"></feGaussianBlur></filter></defs><g stroke-width="1" stroke-linecap="square" stroke-linejoin="round"><rect x="0" y="0" width="820" height="588" style="fill: #ffffff"></rect><path stroke="#969696" fill="#969696" filter="url(#shadowBlur)" d="M25.0 35.0 L795.0 35.0 L795.0 553.0 L25.0 553.0 z"></path><path stroke="#969696" fill="#969696" filter="url(#shadowBlur)" d="M55.0 105.0 L765.0 105.0 L765.0 273.0 L55.0 273.0 z"></path><path stroke="#969696" fill="#969696" filter="url(#shadowBlur)" d="M45.0 399.0 L555.0 399.0 L555.0 469.0 L45.0 469.0 z"></path><path stroke="#969696" fill="#969696" filter="url(#shadowBlur)" d="M325.0 133.0 L725.0 133.0 L725.0 203.0 L325.0 203.0 z"></path><path stroke="#969696" fill="#969696" filter="url(#shadowBlur)" d="M45.0 315.0 L415.0 315.0 L415.0 385.0 L45.0 385.0 z"></path><path stroke="#969696" fill="#969696" filter="url(#shadowBlur)" d="M45.0 511.0 L275.0 511.0 L275.0 539.0 L45.0 539.0 z"></path><path stroke="#969696" fill="#969696" filter="url(#shadowBlur)" d="M545.0 63.0 L765.0 63.0 L765.0 91.0 L545.0 91.0 z"></path><path stroke="#969696" fill="#969696" filter="url(#shadowBlur)" d="M295.0 63.0 L515.0 63.0 L515.0 91.0 L295.0 91.0 z"></path><path stroke="#969696" fill="#969696" filter="url(#shadowBlur)" d="M55.0 63.0 L265.0 63.0 L265.0 91.0 L55.0 91.0 z"></path><path stroke="#969696" fill="#969696" filter="url(#shadowBlur)" d="M345.0 427.0 L525.0 427.0 L525.0 455.0 L345.0 455.0 z"></path><path stroke="#969696" fill="#969696" filter="url(#shadowBlur)" d="M585.0 427.0 L765.0 427.0 L765.0 455.0 L585.0 455.0 z"></path><path stroke="#969696" fill="#969696" filter="url(#shadowBlur)" d="M355.0 161.0 L525.0 161.0 L525.0 189.0 L355.0 189.0 z"></path><path stroke="#969696" fill="#969696" filter="url(#shadowBlur)" d="M605.0 357.0 L775.0 357.0 L775.0 385.0 L605.0 385.0 z"></path><path stroke="#969696" fill="#969696" filter="url(#shadowBlur)" d="M535.0 231.0 L695.0 231.0 L695.0 259.0 L535.0 259.0 z"></path><path stroke="#969696" fill="#969696" filter="url(#shadowBlur)" d="M575.0 315.0 L735.0 315.0 L735.0 343.0 L575.0 343.0 z"></path><path stroke="#969696" fill="#969696" filter="url(#shadowBlur)" d="M435.0 511.0 L595.0 511.0 L595.0 539.0 L435.0 539.0 z"></path><path stroke="#969696" fill="#969696" filter="url(#shadowBlur)" d="M615.0 511.0 L775.0 511.0 L775.0 539.0 L615.0 539.0 z"></path><path stroke="#969696" fill="#969696" filter="url(#shadowBlur)" d="M545.0 161.0 L695.0 161.0 L695.0 189.0 L545.0 189.0 z"></path><path stroke="#969696" fill="#969696" filter="url(#shadowBlur)" d="M65.0 343.0 L215.0 343.0 L215.0 371.0 L65.0 371.0 z"></path><path stroke="#969696" fill="#969696" filter="url(#shadowBlur)" d="M245.0 343.0 L395.0 343.0 L395.0 371.0 L245.0 371.0 z"></path><path stroke="#969696" fill="#969696" filter="url(#shadowBlur)" d="M445.0 357.0 L585.0 357.0 L585.0 385.0 L445.0 385.0 z"></path><path stroke="#969696" fill="#969696" filter="url(#shadowBlur)" d="M385.0 231.0 L505.0 231.0 L505.0 259.0 L385.0 259.0 z"></path><path stroke="#969696" fill="#969696" filter="url(#shadowBlur)" d="M295.0 511.0 L415.0 511.0 L415.0 539.0 L295.0 539.0 z"></path><path stroke="#969696" fill="#969696" filter="url(#shadowBlur)" d="M185.0 133.0 L295.0 133.0 L295.0 161.0 L185.0 161.0 z"></path><path stroke="#969696" fill="#969696" filter="url(#shadowBlur)" d="M445.0 315.0 L555.0 315.0 L555.0 343.0 L445.0 343.0 z"></path><path stroke="#969696" fill="#969696" filter="url(#shadowBlur)" d="M75.0 427.0 L185.0 427.0 L185.0 455.0 L75.0 455.0 z"></path><path stroke="#969696" fill="#969696" filter="url(#shadowBlur)" d="M85.0 231.0 L185.0 231.0 L185.0 259.0 L85.0 259.0 z"></path><path stroke="#969696" fill="#969696" filter="url(#shadowBlur)" d="M235.0 231.0 L335.0 231.0 L335.0 259.0 L235.0 259.0 z"></path><path stroke="#969696" fill="#969696" filter="url(#shadowBlur)" d="M215.0 427.0 L315.0 427.0 L315.0 455.0 L215.0 455.0 z"></path><path stroke="#969696" fill="#969696" filter="url(#shadowBlur)" d="M85.0 133.0 L155.0 133.0 L155.0 161.0 L85.0 161.0 z"></path><path stroke="#000000" stroke-width="1.0" stroke-linecap="round" stroke-linejoin="round" fill="white" d="M25.0 35.0 L795.0 35.0 L795.0 553.0 L25.0 553.0 z"></path><path stroke="#000000" stroke-width="1.0" stroke-linecap="round" stroke-linejoin="round" fill="white" d="M55.0 105.0 L765.0 105.0 L765.0 273.0 L55.0 273.0 z"></path><path stroke="#000000" stroke-width="1.0" stroke-linecap="round" stroke-linejoin="round" fill="white" d="M45.0 399.0 L555.0 399.0 L555.0 469.0 L45.0 469.0 z"></path><path stroke="#000000" stroke-width="1.0" stroke-linecap="round" stroke-linejoin="round" fill="white" d="M325.0 133.0 L725.0 133.0 L725.0 203.0 L325.0 203.0 z"></path><path stroke="#000000" stroke-width="1.0" stroke-linecap="round" stroke-linejoin="round" fill="white" d="M45.0 315.0 L415.0 315.0 L415.0 385.0 L45.0 385.0 z"></path><path stroke="#000000" stroke-width="1.0" stroke-linecap="round" stroke-linejoin="round" fill="white" d="M45.0 511.0 L275.0 511.0 L275.0 539.0 L45.0 539.0 z"></path><path stroke="#000000" stroke-width="1.0" stroke-linecap="round" stroke-linejoin="round" fill="white" d="M545.0 63.0 L765.0 63.0 L765.0 91.0 L545.0 91.0 z"></path><path stroke="#000000" stroke-width="1.0" stroke-linecap="round" stroke-linejoin="round" fill="white" d="M295.0 63.0 L515.0 63.0 L515.0 91.0 L295.0 91.0 z"></path><path stroke="#000000" stroke-width="1.0" stroke-linecap="round" stroke-linejoin="round" fill="white" d="M55.0 63.0 L265.0 63.0 L265.0 91.0 L55.0 91.0 z"></path><path stroke="#000000" stroke-width="1.0" stroke-linecap="round" stroke-linejoin="round" fill="white" d="M345.0 427.0 L525.0 427.0 L525.0 455.0 L345.0 455.0 z"></path><path stroke="#000000" stroke-width="1.0" stroke-linecap="round" stroke-linejoin="round" fill="white" d="M585.0 427.0 L765.0 427.0 L765.0 455.0 L585.0 455.0 z"></path><path stroke="#000000" stroke-width="1.0" stroke-linecap="round" stroke-linejoin="round" fill="white" d="M355.0 161.0 L525.0 161.0 L525.0 189.0 L355.0 189.0 z"></path><path stroke="#000000" stroke-width="1.0" stroke-linecap="round" stroke-linejoin="round" fill="white" d="M605.0 357.0 L775.0 357.0 L775.0 385.0 L605.0 385.0 z"></path><path stroke="#000000" stroke-width="1.0" stroke-linecap="round" stroke-linejoin="round" fill="white" d="M535.0 231.0 L695.0 231.0 L695.0 259.0 L535.0 259.0 z"></path><path stroke="#000000" stroke-width="1.0" stroke-linecap="round" stroke-linejoin="round" fill="white" d="M575.0 315.0 L735.0 315.0 L735.0 343.0 L575.0 343.0 z"></path><path stroke="#000000" stroke-width="1.0" stroke-linecap="round" stroke-linejoin="round" fill="white" d="M435.0 511.0 L595.0 511.0 L595.0 539.0 L435.0 539.0 z"></path><path stroke="#000000" stroke-width="1.0" stroke-linecap="round" stroke-linejoin="round" fill="white" d="M615.0 511.0 L775.0 511.0 L775.0 539.0 L615.0 539.0 z"></path><path stroke="#000000" stroke-width="1.0" stroke-linecap="round" stroke-linejoin="round" fill="white" d="M545.0 161.0 L695.0 161.0 L695.0 189.0 L545.0 189.0 z"></path><path stroke="#000000" stroke-width="1.0" stroke-linecap="round" stroke-linejoin="round" fill="white" d="M65.0 343.0 L215.0 343.0 L215.0 371.0 L65.0 371.0 z"></path><path stroke="#000000" stroke-width="1.0" stroke-linecap="round" stroke-linejoin="round" fill="white" d="M245.0 343.0 L395.0 343.0 L395.0 371.0 L245.0 371.0 z"></path><path stroke="#000000" stroke-width="1.0" stroke-linecap="round" stroke-linejoin="round" fill="white" d="M445.0 357.0 L585.0 357.0 L585.0 385.0 L445.0 385.0 z"></path><path stroke="#000000" stroke-width="1.0" stroke-linecap="round" stroke-linejoin="round" fill="white" d="M385.0 231.0 L505.0 231.0 L505.0 259.0 L385.0 259.0 z"></path><path stroke="#000000" stroke-width="1.0" stroke-linecap="round" stroke-linejoin="round" fill="white" d="M295.0 511.0 L415.0 511.0 L415.0 539.0 L295.0 539.0 z"></path><path stroke="#000000" stroke-width="1.0" stroke-linecap="round" stroke-linejoin="round" fill="white" d="M185.0 133.0 L295.0 133.0 L295.0 161.0 L185.0 161.0 z"></path><path stroke="#000000" stroke-width="1.0" stroke-linecap="round" stroke-linejoin="round" fill="white" d="M445.0 315.0 L555.0 315.0 L555.0 343.0 L445.0 343.0 z"></path><path stroke="#000000" stroke-width="1.0" stroke-linecap="round" stroke-linejoin="round" fill="white" d="M75.0 427.0 L185.0 427.0 L185.0 455.0 L75.0 455.0 z"></path><path stroke="#000000" stroke-width="1.0" stroke-linecap="round" stroke-linejoin="round" fill="white" d="M85.0 231.0 L185.0 231.0 L185.0 259.0 L85.0 259.0 z"></path><path stroke="#000000" stroke-width="1.0" stroke-linecap="round" stroke-linejoin="round" fill="white" d="M235.0 231.0 L335.0 231.0 L335.0 259.0 L235.0 259.0 z"></path><path stroke="#000000" stroke-width="1.0" stroke-linecap="round" stroke-linejoin="round" fill="white" d="M215.0 427.0 L315.0 427.0 L315.0 455.0 L215.0 455.0 z"></path><path stroke="#000000" stroke-width="1.0" stroke-linecap="round" stroke-linejoin="round" fill="white" d="M85.0 133.0 L155.0 133.0 L155.0 161.0 L85.0 161.0 z"></path><path stroke="none" stroke-width="1.0" stroke-linecap="round" stroke-linejoin="round" fill="#000000" d="M115.0 168.0 L110.0 182.0 L120.0 182.0 z"></path><path stroke="none" stroke-width="1.0" stroke-linecap="round" stroke-linejoin="round" fill="#000000" d="M135.0 168.0 L130.0 182.0 L140.0 182.0 z"></path><path stroke="#000000" stroke-width="1.0" stroke-dasharray="5.0,5.0" stroke-miterlimit="0" stroke-linecap="butt" stroke-linejoin="round" fill="none" d="M115.0 175.0 L115.0 231.0 "></path><path stroke="#000000" stroke-width="1.0" stroke-dasharray="5.0,5.0" stroke-miterlimit="0" stroke-linecap="butt" stroke-linejoin="round" fill="none" d="M135.0 175.0 L135.0 203.0 L265.0 203.0 L265.0 231.0 "></path><text x="331" y="54" font-family="sans-serif" font-size="15" stroke="none" fill="#000000"><![CDATA[Core Obstructions]]></text><text x="82" y="82" font-family="sans-serif" font-size="15" stroke="none" fill="#000000"><![CDATA[Type Abbreviations]]></text><text x="324" y="82" font-family="sans-serif" font-size="15" stroke="none" fill="#000000"><![CDATA[Intermittent Models]]></text><text x="566" y="82" font-family="sans-serif" font-size="15" stroke="none" fill="#000000"><![CDATA[Constants and enums]]></text><text x="358" y="124" font-family="sans-serif" font-size="15" stroke="none" fill="#000000"><![CDATA[Interfaces]]></text><text x="104" y="152" font-family="sans-serif" font-size="15" stroke="none" fill="#000000"><![CDATA[IObj]]></text><text x="206" y="152" font-family="sans-serif" font-size="15" stroke="none" fill="#000000"><![CDATA[IObjStat]]></text><text x="439" y="152" font-family="sans-serif" font-size="15" stroke="none" fill="#000000"><![CDATA[Object Store Interfaces]]></text><text x="375" y="180" font-family="sans-serif" font-size="15" stroke="none" fill="#000000"><![CDATA[IUntaggedStore]]></text><text x="565" y="180" font-family="sans-serif" font-size="15" stroke="none" fill="#000000"><![CDATA[ITaggedStore]]></text><text x="115" y="250" font-family="sans-serif" font-size="15" stroke="none" fill="#000000"><![CDATA[IRule]]></text><text x="260" y="250" font-family="sans-serif" font-size="13" stroke="none" fill="#000000"><![CDATA[IMem]]></text><text x="407" y="250" font-family="sans-serif" font-size="15" stroke="none" fill="#000000"><![CDATA[IRuleStat]]></text><text x="559" y="250" font-family="sans-serif" font-size="15" stroke="none" fill="#000000"><![CDATA[EffectHandler]]></text><text x="358" y="306" font-family="sans-serif" font-size="15" stroke="none" fill="#000000"><![CDATA[Basic Modules]]></text><text x="155" y="334" font-family="sans-serif" font-size="15" stroke="none" fill="#000000"><![CDATA[Region Managers]]></text><text x="461" y="334" font-family="sans-serif" font-size="14" stroke="none" fill="#000000"><![CDATA[BasicMem]]></text><text x="598" y="334" font-family="sans-serif" font-size="15" stroke="none" fill="#000000"><![CDATA[BasicObjStore]]></text><text x="81" y="362" font-family="sans-serif" font-size="15" stroke="none" fill="#000000"><![CDATA[CPUEnvRegion]]></text><text x="261" y="362" font-family="sans-serif" font-size="15" stroke="none" fill="#000000"><![CDATA[GPUEnvRegion]]></text><text x="469" y="376" font-family="sans-serif" font-size="15" stroke="none" fill="#000000"><![CDATA[BasicEffect]]></text><text x="631" y="376" font-family="sans-serif" font-size="15" stroke="none" fill="#000000"><![CDATA[BasicCondition]]></text><text x="232" y="418" font-family="sans-serif" font-size="14" stroke="none" fill="#000000"><![CDATA[CSC Components]]></text><text x="93" y="446" font-family="sans-serif" font-size="15" stroke="none" fill="#000000"><![CDATA[Channels]]></text><text x="237" y="446" font-family="sans-serif" font-size="15" stroke="none" fill="#000000"><![CDATA[Carrier]]></text><text x="366" y="446" font-family="sans-serif" font-size="15" stroke="none" fill="#000000"><![CDATA[SendReceiveRule]]></text><text x="609" y="446" font-family="sans-serif" font-size="15" stroke="none" fill="#000000"><![CDATA[BasicRuleStore]]></text><text x="359" y="502" font-family="sans-serif" font-size="15" stroke="none" fill="#000000"><![CDATA[Miscellaneous]]></text><text x="77" y="530" font-family="sans-serif" font-size="15" stroke="none" fill="#000000"><![CDATA[Helpers and builders]]></text><text x="317" y="530" font-family="sans-serif" font-size="15" stroke="none" fill="#000000"><![CDATA[GPU Utils]]></text><text x="463" y="530" font-family="sans-serif" font-size="15" stroke="none" fill="#000000"><![CDATA[Error and log]]></text><text x="640" y="530" font-family="sans-serif" font-size="15" stroke="none" fill="#000000"><![CDATA[Outer Services]]></text></g></svg>