<?xml version="1.0" encoding="UTF-8"?><svg xmlns="http://www.w3.org/2000/svg" width="440" height="210" version="1.0" shape-rendering="geometricPrecision"><defs><filter id="shadowBlur" x="0" y="0" width="200%" height="200%"><feOffset in="SourceGraphic" dx="3.0003002" dy="3.0003002" result="offOut"></feOffset><feGaussianBlur in="offOut" stdDeviation="3"></feGaussianBlur></filter></defs><g stroke-width="1" stroke-linecap="square" stroke-linejoin="round"><rect x="0" y="0" width="440" height="210" style="fill: #ffffff"></rect><path stroke="#969696" fill="#969696" filter="url(#shadowBlur)" d="M25.0 42.0 Q25.0 35.0 30.0 35.0 L410.0 35.0 Q415.0 35.0 415.0 42.0 L415.0 168.0 L415.0 168.0 Q415.0 175.0 410.0 175.0 L30.0 175.0 L30.0 175.0 Q25.0 175.0 25.0 168.0 L25.0 42.0 z"></path><path stroke="#000000" stroke-width="1.0" stroke-linecap="round" stroke-linejoin="round" fill="white" d="M25.0 42.0 Q25.0 35.0 30.0 35.0 L410.0 35.0 Q415.0 35.0 415.0 42.0 L415.0 168.0 L415.0 168.0 Q415.0 175.0 410.0 175.0 L30.0 175.0 L30.0 175.0 Q25.0 175.0 25.0 168.0 L25.0 42.0 z"></path></g></svg>