<?xml version="1.0" encoding="UTF-8"?><svg xmlns="http://www.w3.org/2000/svg" width="730" height="658" version="1.0" shape-rendering="geometricPrecision"><defs><filter id="shadowBlur" x="0" y="0" width="200%" height="200%"><feOffset in="SourceGraphic" dx="3.0003002" dy="3.0003002" result="offOut"></feOffset><feGaussianBlur in="offOut" stdDeviation="3"></feGaussianBlur></filter></defs><g stroke-width="1" stroke-linecap="square" stroke-linejoin="round"><rect x="0" y="0" width="730" height="658" style="fill: #ffffff"></rect><path stroke="#969696" fill="#969696" filter="url(#shadowBlur)" d="M25.0 35.0 L705.0 35.0 L705.0 467.0 L25.0 467.0 z"></path><path stroke="#969696" fill="#969696" filter="url(#shadowBlur)" d="M105.0 70.0 Q105.0 63.0 110.0 63.0 L440.0 63.0 Q445.0 63.0 445.0 70.0 L445.0 196.0 L445.0 196.0 Q445.0 203.0 440.0 203.0 L110.0 203.0 L110.0 203.0 Q105.0 203.0 105.0 196.0 L105.0 70.0 z"></path><path stroke="#969696" fill="#969696" filter="url(#shadowBlur)" d="M105.0 266.0 Q105.0 259.0 110.0 259.0 L440.0 259.0 Q445.0 259.0 445.0 266.0 L445.0 392.0 L445.0 392.0 Q445.0 399.0 440.0 399.0 L110.0 399.0 L110.0 399.0 Q105.0 399.0 105.0 392.0 L105.0 266.0 z"></path><path stroke="#969696" fill="#969696" filter="url(#shadowBlur)" d="M535.0 63.0 L625.0 63.0 L625.0 203.0 L535.0 203.0 z"></path><path stroke="#969696" fill="#969696" filter="url(#shadowBlur)" d="M535.0 259.0 L625.0 259.0 L625.0 399.0 L535.0 399.0 z"></path><path stroke="#969696" fill="#969696" filter="url(#shadowBlur)" d="M275.0 553.0 L455.0 553.0 L455.0 623.0 L275.0 623.0 z"></path><path stroke="#969696" fill="#969696" filter="url(#shadowBlur)" d="M65.0 553.0 L245.0 553.0 L245.0 623.0 L65.0 623.0 z"></path><path stroke="#969696" fill="#969696" filter="url(#shadowBlur)" d="M135.0 280.0 Q135.0 273.0 140.0 273.0 L250.0 273.0 Q255.0 273.0 255.0 280.0 L255.0 364.0 L255.0 364.0 Q255.0 371.0 250.0 371.0 L140.0 371.0 L140.0 371.0 Q135.0 371.0 135.0 364.0 L135.0 280.0 z"></path><path stroke="#969696" fill="#969696" filter="url(#shadowBlur)" d="M295.0 280.0 Q295.0 273.0 300.0 273.0 L410.0 273.0 Q415.0 273.0 415.0 280.0 L415.0 364.0 L415.0 364.0 Q415.0 371.0 410.0 371.0 L300.0 371.0 L300.0 371.0 Q295.0 371.0 295.0 364.0 L295.0 280.0 z"></path><path stroke="#969696" fill="#969696" filter="url(#shadowBlur)" d="M95.0 427.0 L305.0 427.0 L305.0 467.0 L95.0 467.0 z"></path><path stroke="#969696" fill="#969696" filter="url(#shadowBlur)" d="M355.0 427.0 L565.0 427.0 L565.0 467.0 L355.0 467.0 z"></path><path stroke="#969696" fill="#969696" filter="url(#shadowBlur)" d="M135.0 84.0 Q135.0 77.0 140.0 77.0 L240.0 77.0 Q245.0 77.0 245.0 84.0 L245.0 140.0 L245.0 140.0 Q245.0 147.0 240.0 147.0 L140.0 147.0 L140.0 147.0 Q135.0 147.0 135.0 140.0 L135.0 84.0 z"></path><path stroke="#969696" fill="#969696" filter="url(#shadowBlur)" d="M305.0 84.0 Q305.0 77.0 310.0 77.0 L410.0 77.0 Q415.0 77.0 415.0 84.0 L415.0 140.0 L415.0 140.0 Q415.0 147.0 410.0 147.0 L310.0 147.0 L310.0 147.0 Q305.0 147.0 305.0 140.0 L305.0 84.0 z"></path><path stroke="#969696" fill="#969696" filter="url(#shadowBlur)" d="M145.0 294.0 Q145.0 287.0 150.0 287.0 L160.0 287.0 Q165.0 287.0 165.0 294.0 L165.0 294.0 L165.0 294.0 Q165.0 301.0 160.0 301.0 L150.0 301.0 L150.0 301.0 Q145.0 301.0 145.0 294.0 L145.0 294.0 z"></path><path stroke="#969696" fill="#969696" filter="url(#shadowBlur)" d="M185.0 294.0 Q185.0 287.0 190.0 287.0 L200.0 287.0 Q205.0 287.0 205.0 294.0 L205.0 294.0 L205.0 294.0 Q205.0 301.0 200.0 301.0 L190.0 301.0 L190.0 301.0 Q185.0 301.0 185.0 294.0 L185.0 294.0 z"></path><path stroke="#969696" fill="#969696" filter="url(#shadowBlur)" d="M225.0 294.0 Q225.0 287.0 230.0 287.0 L240.0 287.0 Q245.0 287.0 245.0 294.0 L245.0 294.0 L245.0 294.0 Q245.0 301.0 240.0 301.0 L230.0 301.0 L230.0 301.0 Q225.0 301.0 225.0 294.0 L225.0 294.0 z"></path><path stroke="#969696" fill="#969696" filter="url(#shadowBlur)" d="M305.0 294.0 Q305.0 287.0 310.0 287.0 L320.0 287.0 Q325.0 287.0 325.0 294.0 L325.0 294.0 L325.0 294.0 Q325.0 301.0 320.0 301.0 L310.0 301.0 L310.0 301.0 Q305.0 301.0 305.0 294.0 L305.0 294.0 z"></path><path stroke="#969696" fill="#969696" filter="url(#shadowBlur)" d="M345.0 294.0 Q345.0 287.0 350.0 287.0 L360.0 287.0 Q365.0 287.0 365.0 294.0 L365.0 294.0 L365.0 294.0 Q365.0 301.0 360.0 301.0 L350.0 301.0 L350.0 301.0 Q345.0 301.0 345.0 294.0 L345.0 294.0 z"></path><path stroke="#969696" fill="#969696" filter="url(#shadowBlur)" d="M385.0 294.0 Q385.0 287.0 390.0 287.0 L400.0 287.0 Q405.0 287.0 405.0 294.0 L405.0 294.0 L405.0 294.0 Q405.0 301.0 400.0 301.0 L390.0 301.0 L390.0 301.0 Q385.0 301.0 385.0 294.0 L385.0 294.0 z"></path><path stroke="#969696" fill="#969696" filter="url(#shadowBlur)" d="M145.0 322.0 Q145.0 315.0 150.0 315.0 L160.0 315.0 Q165.0 315.0 165.0 322.0 L165.0 322.0 L165.0 322.0 Q165.0 329.0 160.0 329.0 L150.0 329.0 L150.0 329.0 Q145.0 329.0 145.0 322.0 L145.0 322.0 z"></path><path stroke="#969696" fill="#969696" filter="url(#shadowBlur)" d="M185.0 322.0 Q185.0 315.0 190.0 315.0 L200.0 315.0 Q205.0 315.0 205.0 322.0 L205.0 322.0 L205.0 322.0 Q205.0 329.0 200.0 329.0 L190.0 329.0 L190.0 329.0 Q185.0 329.0 185.0 322.0 L185.0 322.0 z"></path><path stroke="#969696" fill="#969696" filter="url(#shadowBlur)" d="M225.0 322.0 Q225.0 315.0 230.0 315.0 L240.0 315.0 Q245.0 315.0 245.0 322.0 L245.0 322.0 L245.0 322.0 Q245.0 329.0 240.0 329.0 L230.0 329.0 L230.0 329.0 Q225.0 329.0 225.0 322.0 L225.0 322.0 z"></path><path stroke="#969696" fill="#969696" filter="url(#shadowBlur)" d="M305.0 322.0 Q305.0 315.0 310.0 315.0 L320.0 315.0 Q325.0 315.0 325.0 322.0 L325.0 322.0 L325.0 322.0 Q325.0 329.0 320.0 329.0 L310.0 329.0 L310.0 329.0 Q305.0 329.0 305.0 322.0 L305.0 322.0 z"></path><path stroke="#969696" fill="#969696" filter="url(#shadowBlur)" d="M345.0 322.0 Q345.0 315.0 350.0 315.0 L360.0 315.0 Q365.0 315.0 365.0 322.0 L365.0 322.0 L365.0 322.0 Q365.0 329.0 360.0 329.0 L350.0 329.0 L350.0 329.0 Q345.0 329.0 345.0 322.0 L345.0 322.0 z"></path><path stroke="#969696" fill="#969696" filter="url(#shadowBlur)" d="M385.0 322.0 Q385.0 315.0 390.0 315.0 L400.0 315.0 Q405.0 315.0 405.0 322.0 L405.0 322.0 L405.0 322.0 Q405.0 329.0 400.0 329.0 L390.0 329.0 L390.0 329.0 Q385.0 329.0 385.0 322.0 L385.0 322.0 z"></path><path stroke="white" stroke-width="1.0" stroke-linecap="round" stroke-linejoin="round" fill="#ffffff" d="M485.0 553.0 C515.0 560.0 635.0 560.0 665.0 553.0 C635.0 546.0 515.0 546.0 485.0 553.0 M485.0 553.0 L485.0 623.0 C515.0 633.0 635.0 633.0 665.0 623.0 L665.0 553.0 "></path><path stroke="#000000" stroke-width="1.0" stroke-linecap="round" stroke-linejoin="round" fill="none" d="M485.0 553.0 C515.0 560.0 635.0 560.0 665.0 553.0 C635.0 546.0 515.0 546.0 485.0 553.0 M485.0 553.0 L485.0 623.0 C515.0 633.0 635.0 633.0 665.0 623.0 L665.0 553.0 "></path><path stroke="#000000" stroke-width="1.0" stroke-linecap="round" stroke-linejoin="round" fill="white" d="M25.0 35.0 L705.0 35.0 L705.0 467.0 L25.0 467.0 z"></path><path stroke="#000000" stroke-width="1.0" stroke-linecap="round" stroke-linejoin="round" fill="white" d="M105.0 70.0 Q105.0 63.0 110.0 63.0 L440.0 63.0 Q445.0 63.0 445.0 70.0 L445.0 196.0 L445.0 196.0 Q445.0 203.0 440.0 203.0 L110.0 203.0 L110.0 203.0 Q105.0 203.0 105.0 196.0 L105.0 70.0 z"></path><path stroke="#000000" stroke-width="1.0" stroke-linecap="round" stroke-linejoin="round" fill="white" d="M105.0 266.0 Q105.0 259.0 110.0 259.0 L440.0 259.0 Q445.0 259.0 445.0 266.0 L445.0 392.0 L445.0 392.0 Q445.0 399.0 440.0 399.0 L110.0 399.0 L110.0 399.0 Q105.0 399.0 105.0 392.0 L105.0 266.0 z"></path><path stroke="#000000" stroke-width="1.0" stroke-linecap="round" stroke-linejoin="round" fill="none" d="M625.0 133.0 L685.0 133.0 L685.0 455.0 L575.0 455.0 "></path><path stroke="#000000" stroke-width="1.0" stroke-linecap="round" stroke-linejoin="round" fill="none" d="M95.0 133.0 L45.0 133.0 L45.0 455.0 L85.0 455.0 "></path><path stroke="#000000" stroke-width="1.0" stroke-linecap="round" stroke-linejoin="round" fill="white" d="M535.0 63.0 L625.0 63.0 L625.0 203.0 L535.0 203.0 z"></path><path stroke="#000000" stroke-width="1.0" stroke-linecap="round" stroke-linejoin="round" fill="white" d="M535.0 259.0 L625.0 259.0 L625.0 399.0 L535.0 399.0 z"></path><path stroke="#000000" stroke-width="1.0" stroke-linecap="round" stroke-linejoin="round" fill="white" d="M275.0 553.0 L455.0 553.0 L455.0 623.0 L275.0 623.0 z"></path><path stroke="#000000" stroke-width="1.0" stroke-linecap="round" stroke-linejoin="round" fill="white" d="M65.0 553.0 L245.0 553.0 L245.0 623.0 L65.0 623.0 z"></path><path stroke="#000000" stroke-width="1.0" stroke-linecap="round" stroke-linejoin="round" fill="white" d="M135.0 280.0 Q135.0 273.0 140.0 273.0 L250.0 273.0 Q255.0 273.0 255.0 280.0 L255.0 364.0 L255.0 364.0 Q255.0 371.0 250.0 371.0 L140.0 371.0 L140.0 371.0 Q135.0 371.0 135.0 364.0 L135.0 280.0 z"></path><path stroke="#000000" stroke-width="1.0" stroke-linecap="round" stroke-linejoin="round" fill="white" d="M295.0 280.0 Q295.0 273.0 300.0 273.0 L410.0 273.0 Q415.0 273.0 415.0 280.0 L415.0 364.0 L415.0 364.0 Q415.0 371.0 410.0 371.0 L300.0 371.0 L300.0 371.0 Q295.0 371.0 295.0 364.0 L295.0 280.0 z"></path><path stroke="#000000" stroke-width="1.0" stroke-linecap="round" stroke-linejoin="round" fill="white" d="M95.0 427.0 L305.0 427.0 L305.0 467.0 L95.0 467.0 z"></path><path stroke="#000000" stroke-width="1.0" stroke-linecap="round" stroke-linejoin="round" fill="white" d="M355.0 427.0 L565.0 427.0 L565.0 467.0 L355.0 467.0 z"></path><path stroke="#000000" stroke-width="1.0" stroke-linecap="round" stroke-linejoin="round" fill="white" d="M135.0 84.0 Q135.0 77.0 140.0 77.0 L240.0 77.0 Q245.0 77.0 245.0 84.0 L245.0 140.0 L245.0 140.0 Q245.0 147.0 240.0 147.0 L140.0 147.0 L140.0 147.0 Q135.0 147.0 135.0 140.0 L135.0 84.0 z"></path><path stroke="#000000" stroke-width="1.0" stroke-linecap="round" stroke-linejoin="round" fill="white" d="M305.0 84.0 Q305.0 77.0 310.0 77.0 L410.0 77.0 Q415.0 77.0 415.0 84.0 L415.0 140.0 L415.0 140.0 Q415.0 147.0 410.0 147.0 L310.0 147.0 L310.0 147.0 Q305.0 147.0 305.0 140.0 L305.0 84.0 z"></path><path stroke="#000000" stroke-width="1.0" stroke-linecap="round" stroke-linejoin="round" fill="none" d="M635.0 329.0 L655.0 329.0 L655.0 441.0 L565.0 441.0 "></path><path stroke="#000000" stroke-width="1.0" stroke-linecap="round" stroke-linejoin="round" fill="none" d="M95.0 329.0 L65.0 329.0 L65.0 441.0 L85.0 441.0 "></path><path stroke="#000000" stroke-width="1.0" stroke-linecap="round" stroke-linejoin="round" fill="none" d="M485.0 175.0 L475.0 175.0 L475.0 287.0 L445.0 287.0 "></path><path stroke="#000000" stroke-width="1.0" stroke-linecap="round" stroke-linejoin="round" fill="white" d="M145.0 294.0 Q145.0 287.0 150.0 287.0 L160.0 287.0 Q165.0 287.0 165.0 294.0 L165.0 294.0 L165.0 294.0 Q165.0 301.0 160.0 301.0 L150.0 301.0 L150.0 301.0 Q145.0 301.0 145.0 294.0 L145.0 294.0 z"></path><path stroke="#000000" stroke-width="1.0" stroke-linecap="round" stroke-linejoin="round" fill="white" d="M185.0 294.0 Q185.0 287.0 190.0 287.0 L200.0 287.0 Q205.0 287.0 205.0 294.0 L205.0 294.0 L205.0 294.0 Q205.0 301.0 200.0 301.0 L190.0 301.0 L190.0 301.0 Q185.0 301.0 185.0 294.0 L185.0 294.0 z"></path><path stroke="#000000" stroke-width="1.0" stroke-linecap="round" stroke-linejoin="round" fill="white" d="M225.0 294.0 Q225.0 287.0 230.0 287.0 L240.0 287.0 Q245.0 287.0 245.0 294.0 L245.0 294.0 L245.0 294.0 Q245.0 301.0 240.0 301.0 L230.0 301.0 L230.0 301.0 Q225.0 301.0 225.0 294.0 L225.0 294.0 z"></path><path stroke="#000000" stroke-width="1.0" stroke-linecap="round" stroke-linejoin="round" fill="white" d="M305.0 294.0 Q305.0 287.0 310.0 287.0 L320.0 287.0 Q325.0 287.0 325.0 294.0 L325.0 294.0 L325.0 294.0 Q325.0 301.0 320.0 301.0 L310.0 301.0 L310.0 301.0 Q305.0 301.0 305.0 294.0 L305.0 294.0 z"></path><path stroke="#000000" stroke-width="1.0" stroke-linecap="round" stroke-linejoin="round" fill="white" d="M345.0 294.0 Q345.0 287.0 350.0 287.0 L360.0 287.0 Q365.0 287.0 365.0 294.0 L365.0 294.0 L365.0 294.0 Q365.0 301.0 360.0 301.0 L350.0 301.0 L350.0 301.0 Q345.0 301.0 345.0 294.0 L345.0 294.0 z"></path><path stroke="#000000" stroke-width="1.0" stroke-linecap="round" stroke-linejoin="round" fill="white" d="M385.0 294.0 Q385.0 287.0 390.0 287.0 L400.0 287.0 Q405.0 287.0 405.0 294.0 L405.0 294.0 L405.0 294.0 Q405.0 301.0 400.0 301.0 L390.0 301.0 L390.0 301.0 Q385.0 301.0 385.0 294.0 L385.0 294.0 z"></path><path stroke="#000000" stroke-width="1.0" stroke-linecap="round" stroke-linejoin="round" fill="white" d="M145.0 322.0 Q145.0 315.0 150.0 315.0 L160.0 315.0 Q165.0 315.0 165.0 322.0 L165.0 322.0 L165.0 322.0 Q165.0 329.0 160.0 329.0 L150.0 329.0 L150.0 329.0 Q145.0 329.0 145.0 322.0 L145.0 322.0 z"></path><path stroke="#000000" stroke-width="1.0" stroke-linecap="round" stroke-linejoin="round" fill="white" d="M185.0 322.0 Q185.0 315.0 190.0 315.0 L200.0 315.0 Q205.0 315.0 205.0 322.0 L205.0 322.0 L205.0 322.0 Q205.0 329.0 200.0 329.0 L190.0 329.0 L190.0 329.0 Q185.0 329.0 185.0 322.0 L185.0 322.0 z"></path><path stroke="#000000" stroke-width="1.0" stroke-linecap="round" stroke-linejoin="round" fill="white" d="M225.0 322.0 Q225.0 315.0 230.0 315.0 L240.0 315.0 Q245.0 315.0 245.0 322.0 L245.0 322.0 L245.0 322.0 Q245.0 329.0 240.0 329.0 L230.0 329.0 L230.0 329.0 Q225.0 329.0 225.0 322.0 L225.0 322.0 z"></path><path stroke="#000000" stroke-width="1.0" stroke-linecap="round" stroke-linejoin="round" fill="white" d="M305.0 322.0 Q305.0 315.0 310.0 315.0 L320.0 315.0 Q325.0 315.0 325.0 322.0 L325.0 322.0 L325.0 322.0 Q325.0 329.0 320.0 329.0 L310.0 329.0 L310.0 329.0 Q305.0 329.0 305.0 322.0 L305.0 322.0 z"></path><path stroke="#000000" stroke-width="1.0" stroke-linecap="round" stroke-linejoin="round" fill="white" d="M345.0 322.0 Q345.0 315.0 350.0 315.0 L360.0 315.0 Q365.0 315.0 365.0 322.0 L365.0 322.0 L365.0 322.0 Q365.0 329.0 360.0 329.0 L350.0 329.0 L350.0 329.0 Q345.0 329.0 345.0 322.0 L345.0 322.0 z"></path><path stroke="#000000" stroke-width="1.0" stroke-linecap="round" stroke-linejoin="round" fill="white" d="M385.0 322.0 Q385.0 315.0 390.0 315.0 L400.0 315.0 Q405.0 315.0 405.0 322.0 L405.0 322.0 L405.0 322.0 Q405.0 329.0 400.0 329.0 L390.0 329.0 L390.0 329.0 Q385.0 329.0 385.0 322.0 L385.0 322.0 z"></path><path stroke="none" stroke-width="1.0" stroke-linecap="round" stroke-linejoin="round" fill="#000000" d="M520.0 84.0 L530.0 91.0 L520.0 98.0 z"></path><path stroke="none" stroke-width="1.0" stroke-linecap="round" stroke-linejoin="round" fill="#000000" d="M260.0 112.0 L250.0 119.0 L260.0 126.0 z"></path><path stroke="none" stroke-width="1.0" stroke-linecap="round" stroke-linejoin="round" fill="#000000" d="M290.0 112.0 L300.0 119.0 L290.0 126.0 z"></path><path stroke="none" stroke-width="1.0" stroke-linecap="round" stroke-linejoin="round" fill="#000000" d="M90.0 126.0 L100.0 133.0 L90.0 140.0 z"></path><path stroke="none" stroke-width="1.0" stroke-linecap="round" stroke-linejoin="round" fill="#000000" d="M460.0 140.0 L450.0 147.0 L460.0 154.0 z"></path><path stroke="none" stroke-width="1.0" stroke-linecap="round" stroke-linejoin="round" fill="#000000" d="M520.0 168.0 L530.0 175.0 L520.0 182.0 z"></path><path stroke="none" stroke-width="1.0" stroke-linecap="round" stroke-linejoin="round" fill="#000000" d="M275.0 210.0 L270.0 224.0 L280.0 224.0 z"></path><path stroke="none" stroke-width="1.0" stroke-linecap="round" stroke-linejoin="round" fill="#000000" d="M270.0 238.0 L275.0 252.0 L280.0 238.0 z"></path><path stroke="none" stroke-width="1.0" stroke-linecap="round" stroke-linejoin="round" fill="#000000" d="M270.0 308.0 L260.0 315.0 L270.0 322.0 z"></path><path stroke="none" stroke-width="1.0" stroke-linecap="round" stroke-linejoin="round" fill="#000000" d="M280.0 308.0 L290.0 315.0 L280.0 322.0 z"></path><path stroke="none" stroke-width="1.0" stroke-linecap="round" stroke-linejoin="round" fill="#000000" d="M90.0 322.0 L100.0 329.0 L90.0 336.0 z"></path><path stroke="none" stroke-width="1.0" stroke-linecap="round" stroke-linejoin="round" fill="#000000" d="M640.0 322.0 L630.0 329.0 L640.0 336.0 z"></path><path stroke="none" stroke-width="1.0" stroke-linecap="round" stroke-linejoin="round" fill="#000000" d="M460.0 364.0 L450.0 371.0 L460.0 378.0 z"></path><path stroke="none" stroke-width="1.0" stroke-linecap="round" stroke-linejoin="round" fill="#000000" d="M80.0 434.0 L90.0 441.0 L80.0 448.0 z"></path><path stroke="none" stroke-width="1.0" stroke-linecap="round" stroke-linejoin="round" fill="#000000" d="M80.0 448.0 L90.0 455.0 L80.0 462.0 z"></path><path stroke="none" stroke-width="1.0" stroke-linecap="round" stroke-linejoin="round" fill="#000000" d="M580.0 448.0 L570.0 455.0 L580.0 462.0 z"></path><path stroke="none" stroke-width="1.0" stroke-linecap="round" stroke-linejoin="round" fill="#000000" d="M145.0 476.0 L140.0 490.0 L150.0 490.0 z"></path><path stroke="none" stroke-width="1.0" stroke-linecap="round" stroke-linejoin="round" fill="#000000" d="M255.0 476.0 L250.0 490.0 L260.0 490.0 z"></path><path stroke="none" stroke-width="1.0" stroke-linecap="round" stroke-linejoin="round" fill="#000000" d="M405.0 476.0 L400.0 490.0 L410.0 490.0 z"></path><path stroke="none" stroke-width="1.0" stroke-linecap="round" stroke-linejoin="round" fill="#000000" d="M515.0 476.0 L510.0 490.0 L520.0 490.0 z"></path><path stroke="none" stroke-width="1.0" stroke-linecap="round" stroke-linejoin="round" fill="#000000" d="M140.0 532.0 L145.0 546.0 L150.0 532.0 z"></path><path stroke="none" stroke-width="1.0" stroke-linecap="round" stroke-linejoin="round" fill="#000000" d="M320.0 532.0 L325.0 546.0 L330.0 532.0 z"></path><path stroke="none" stroke-width="1.0" stroke-linecap="round" stroke-linejoin="round" fill="#000000" d="M400.0 532.0 L405.0 546.0 L410.0 532.0 z"></path><path stroke="none" stroke-width="1.0" stroke-linecap="round" stroke-linejoin="round" fill="#000000" d="M570.0 532.0 L575.0 546.0 L580.0 532.0 z"></path><path stroke="#000000" stroke-width="1.0" stroke-linecap="round" stroke-linejoin="round" fill="none" d="M275.0 217.0 L275.0 245.0 "></path><path stroke="#000000" stroke-width="1.0" stroke-linecap="round" stroke-linejoin="round" fill="none" d="M265.0 315.0 L285.0 315.0 "></path><path stroke="#000000" stroke-width="1.0" stroke-linecap="round" stroke-linejoin="round" fill="none" d="M255.0 119.0 L295.0 119.0 "></path><path stroke="#000000" stroke-width="1.0" stroke-linecap="round" stroke-linejoin="round" fill="none" d="M505.0 175.0 L525.0 175.0 "></path><path stroke="#000000" stroke-width="1.0" stroke-linecap="round" stroke-linejoin="round" fill="none" d="M145.0 483.0 L145.0 539.0 "></path><path stroke="#000000" stroke-width="1.0" stroke-linecap="round" stroke-linejoin="round" fill="none" d="M255.0 483.0 L255.0 511.0 L325.0 511.0 L325.0 539.0 "></path><path stroke="#000000" stroke-width="1.0" stroke-linecap="round" stroke-linejoin="round" fill="none" d="M405.0 483.0 L405.0 539.0 "></path><path stroke="#000000" stroke-width="1.0" stroke-linecap="round" stroke-linejoin="round" fill="none" d="M515.0 483.0 L515.0 511.0 L575.0 511.0 L575.0 539.0 "></path><path stroke="#000000" stroke-width="1.0" stroke-linecap="round" stroke-linejoin="round" fill="none" d="M445.0 91.0 L525.0 91.0 "></path><path stroke="#000000" stroke-width="1.0" stroke-linecap="round" stroke-linejoin="round" fill="none" d="M455.0 147.0 L495.0 147.0 L495.0 287.0 L535.0 287.0 "></path><path stroke="#000000" stroke-width="1.0" stroke-linecap="round" stroke-linejoin="round" fill="none" d="M455.0 371.0 L535.0 371.0 "></path><text x="315" y="54" font-family="sans-serif" font-size="15" stroke="none" fill="#000000"><![CDATA[Emulator Program]]></text><text x="150" y="96" font-family="sans-serif" font-size="13" stroke="none" fill="#000000"><![CDATA[CPU]]></text><text x="150" y="110" font-family="sans-serif" font-size="13" stroke="none" fill="#000000"><![CDATA[Membrane]]></text><text x="150" y="124" font-family="sans-serif" font-size="15" stroke="none" fill="#000000"><![CDATA[Instance]]></text><text x="320" y="96" font-family="sans-serif" font-size="13" stroke="none" fill="#000000"><![CDATA[CPU]]></text><text x="320" y="110" font-family="sans-serif" font-size="13" stroke="none" fill="#000000"><![CDATA[Membrane]]></text><text x="320" y="124" font-family="sans-serif" font-size="15" stroke="none" fill="#000000"><![CDATA[Instance]]></text><text x="262" y="110" font-family="sans-serif" font-size="15" stroke="none" fill="#000000"><![CDATA[ITC]]></text><text x="540" y="110" font-family="sans-serif" font-size="14" stroke="none" fill="#000000"><![CDATA[Remote]]></text><text x="540" y="124" font-family="sans-serif" font-size="14" stroke="none" fill="#000000"><![CDATA[Message]]></text><text x="540" y="138" font-family="sans-serif" font-size="15" stroke="none" fill="#000000"><![CDATA[Encoder]]></text><text x="174" y="194" font-family="sans-serif" font-size="14" stroke="none" fill="#000000"><![CDATA[CPU Membranes Manager]]></text><text x="262" y="306" font-family="sans-serif" font-size="15" stroke="none" fill="#ffffff"><![CDATA[ITC]]></text><text x="540" y="306" font-family="sans-serif" font-size="14" stroke="none" fill="#000000"><![CDATA[Remote]]></text><text x="540" y="320" font-family="sans-serif" font-size="14" stroke="none" fill="#000000"><![CDATA[Message]]></text><text x="540" y="334" font-family="sans-serif" font-size="15" stroke="none" fill="#000000"><![CDATA[Decoder]]></text><text x="140" y="348" font-family="sans-serif" font-size="15" stroke="none" fill="#000000"><![CDATA[GPU Region]]></text><text x="140" y="362" font-family="sans-serif" font-size="15" stroke="none" fill="#000000"><![CDATA[Instance]]></text><text x="300" y="348" font-family="sans-serif" font-size="15" stroke="none" fill="#000000"><![CDATA[GPU Region]]></text><text x="300" y="362" font-family="sans-serif" font-size="15" stroke="none" fill="#000000"><![CDATA[Instance]]></text><text x="174" y="390" font-family="sans-serif" font-size="14" stroke="none" fill="#000000"><![CDATA[GPU Membranes Manager]]></text><text x="160" y="446" font-family="sans-serif" font-size="15" stroke="none" fill="#000000"><![CDATA[Services]]></text><text x="160" y="460" font-family="sans-serif" font-size="15" stroke="none" fill="#000000"><![CDATA[Connector]]></text><text x="440" y="446" font-family="sans-serif" font-size="14" stroke="none" fill="#000000"><![CDATA[Remote]]></text><text x="406" y="460" font-family="sans-serif" font-size="15" stroke="none" fill="#000000"><![CDATA[Data Connector]]></text><text x="271" y="502" font-family="sans-serif" font-size="15" stroke="none" fill="#000000"><![CDATA[IPC]]></text><text x="161" y="516" font-family="sans-serif" font-size="15" stroke="none" fill="#000000"><![CDATA[IPC]]></text><text x="421" y="516" font-family="sans-serif" font-size="15" stroke="none" fill="#000000"><![CDATA[IPC]]></text><text x="592" y="530" font-family="sans-serif" font-size="15" stroke="none" fill="#000000"><![CDATA[Socket]]></text><text x="132" y="586" font-family="sans-serif" font-size="15" stroke="none" fill="#000000"><![CDATA[Other]]></text><text x="126" y="600" font-family="sans-serif" font-size="15" stroke="none" fill="#000000"><![CDATA[Services]]></text><text x="294" y="586" font-family="sans-serif" font-size="15" stroke="none" fill="#000000"><![CDATA[Remote Emulator]]></text><text x="332" y="600" font-family="sans-serif" font-size="14" stroke="none" fill="#000000"><![CDATA[Program]]></text><text x="541" y="586" font-family="sans-serif" font-size="15" stroke="none" fill="#000000"><![CDATA[Database]]></text></g></svg>